solid OpenSCAD_Model
  facet normal -0.471398 -0.881921 0
    outer loop
      vertex 50.2481 24.6966 0
      vertex 50.7667 24.4194 1.5
      vertex 50.2481 24.6966 1.5
    endloop
  endfacet
  facet normal -0.471398 -0.881921 -0
    outer loop
      vertex 50.7667 24.4194 1.5
      vertex 50.2481 24.6966 0
      vertex 50.7667 24.4194 0
    endloop
  endfacet
  facet normal 0 1 -0
    outer loop
      vertex 49.1 4.925 0
      vertex 27.1 4.925 1.5
      vertex 49.1 4.925 1.5
    endloop
  endfacet
  facet normal 0 1 0
    outer loop
      vertex 27.1 4.925 1.5
      vertex 49.1 4.925 0
      vertex 27.1 4.925 0
    endloop
  endfacet
  facet normal 0.634394 -0.77301 0
    outer loop
      vertex 24.9787 24.0463 0
      vertex 25.4333 24.4194 1.5
      vertex 24.9787 24.0463 1.5
    endloop
  endfacet
  facet normal 0.634394 -0.77301 0
    outer loop
      vertex 25.4333 24.4194 1.5
      vertex 24.9787 24.0463 0
      vertex 25.4333 24.4194 0
    endloop
  endfacet
  facet normal -1 0 0
    outer loop
      vertex 52.1 7.925 0
      vertex 52.1 21.925 1.5
      vertex 52.1 21.925 0
    endloop
  endfacet
  facet normal -1 -0 0
    outer loop
      vertex 52.1 21.925 1.5
      vertex 52.1 7.925 0
      vertex 52.1 7.925 1.5
    endloop
  endfacet
  facet normal -0.995185 0.0980165 0
    outer loop
      vertex 52.0424 7.33973 0
      vertex 52.1 7.925 1.5
      vertex 52.1 7.925 0
    endloop
  endfacet
  facet normal -0.995185 0.0980165 0
    outer loop
      vertex 52.1 7.925 1.5
      vertex 52.0424 7.33973 0
      vertex 52.0424 7.33973 1.5
    endloop
  endfacet
  facet normal 0.881921 -0.471397 0
    outer loop
      vertex 24.3284 23.073 1.5
      vertex 24.6056 23.5917 0
      vertex 24.6056 23.5917 1.5
    endloop
  endfacet
  facet normal 0.881921 -0.471397 0
    outer loop
      vertex 24.6056 23.5917 0
      vertex 24.3284 23.073 1.5
      vertex 24.3284 23.073 0
    endloop
  endfacet
  facet normal 1 -0 0
    outer loop
      vertex 24.1 7.925 1.5
      vertex 24.1 21.925 0
      vertex 24.1 21.925 1.5
    endloop
  endfacet
  facet normal 1 0 0
    outer loop
      vertex 24.1 21.925 0
      vertex 24.1 7.925 1.5
      vertex 24.1 7.925 0
    endloop
  endfacet
  facet normal 0.995185 -0.0980165 0
    outer loop
      vertex 24.1 21.925 1.5
      vertex 24.1576 22.5103 0
      vertex 24.1576 22.5103 1.5
    endloop
  endfacet
  facet normal 0.995185 -0.0980165 0
    outer loop
      vertex 24.1576 22.5103 0
      vertex 24.1 21.925 1.5
      vertex 24.1 21.925 0
    endloop
  endfacet
  facet normal 0.995185 0.0980165 0
    outer loop
      vertex 24.1576 7.33973 1.5
      vertex 24.1 7.925 0
      vertex 24.1 7.925 1.5
    endloop
  endfacet
  facet normal 0.995185 0.0980165 0
    outer loop
      vertex 24.1 7.925 0
      vertex 24.1576 7.33973 1.5
      vertex 24.1576 7.33973 0
    endloop
  endfacet
  facet normal 0 -1 0
    outer loop
      vertex 27.1 24.925 0
      vertex 49.1 24.925 1.5
      vertex 27.1 24.925 1.5
    endloop
  endfacet
  facet normal 0 -1 -0
    outer loop
      vertex 49.1 24.925 1.5
      vertex 27.1 24.925 0
      vertex 49.1 24.925 0
    endloop
  endfacet
  facet normal 0.471395 0.881922 -0
    outer loop
      vertex 25.952 5.15336 0
      vertex 25.4333 5.43059 1.5
      vertex 25.952 5.15336 1.5
    endloop
  endfacet
  facet normal 0.471395 0.881922 0
    outer loop
      vertex 25.4333 5.43059 1.5
      vertex 25.952 5.15336 0
      vertex 25.4333 5.43059 0
    endloop
  endfacet
  facet normal 0.0980165 0.995185 -0
    outer loop
      vertex 27.1 4.925 0
      vertex 26.5147 4.98264 1.5
      vertex 27.1 4.925 1.5
    endloop
  endfacet
  facet normal 0.0980165 0.995185 0
    outer loop
      vertex 26.5147 4.98264 1.5
      vertex 27.1 4.925 0
      vertex 26.5147 4.98264 0
    endloop
  endfacet
  facet normal 0.95694 0.290285 0
    outer loop
      vertex 24.3284 6.77695 1.5
      vertex 24.1576 7.33973 0
      vertex 24.1576 7.33973 1.5
    endloop
  endfacet
  facet normal 0.95694 0.290285 0
    outer loop
      vertex 24.1576 7.33973 0
      vertex 24.3284 6.77695 1.5
      vertex 24.3284 6.77695 0
    endloop
  endfacet
  facet normal 0.773011 -0.634393 0
    outer loop
      vertex 24.6056 23.5917 1.5
      vertex 24.9787 24.0463 0
      vertex 24.9787 24.0463 1.5
    endloop
  endfacet
  facet normal 0.773011 -0.634393 0
    outer loop
      vertex 24.9787 24.0463 0
      vertex 24.6056 23.5917 1.5
      vertex 24.6056 23.5917 0
    endloop
  endfacet
  facet normal 0.471395 -0.881922 0
    outer loop
      vertex 25.4333 24.4194 0
      vertex 25.952 24.6966 1.5
      vertex 25.4333 24.4194 1.5
    endloop
  endfacet
  facet normal 0.471395 -0.881922 0
    outer loop
      vertex 25.952 24.6966 1.5
      vertex 25.4333 24.4194 0
      vertex 25.952 24.6966 0
    endloop
  endfacet
  facet normal -0.634391 -0.773012 0
    outer loop
      vertex 50.7667 24.4194 0
      vertex 51.2213 24.0463 1.5
      vertex 50.7667 24.4194 1.5
    endloop
  endfacet
  facet normal -0.634391 -0.773012 -0
    outer loop
      vertex 51.2213 24.0463 1.5
      vertex 50.7667 24.4194 0
      vertex 51.2213 24.0463 0
    endloop
  endfacet
  facet normal -0.0980162 -0.995185 0
    outer loop
      vertex 49.1 24.925 0
      vertex 49.6853 24.8674 1.5
      vertex 49.1 24.925 1.5
    endloop
  endfacet
  facet normal -0.0980162 -0.995185 -0
    outer loop
      vertex 49.6853 24.8674 1.5
      vertex 49.1 24.925 0
      vertex 49.6853 24.8674 0
    endloop
  endfacet
  facet normal 0.0980165 -0.995185 0
    outer loop
      vertex 26.5147 24.8674 0
      vertex 27.1 24.925 1.5
      vertex 26.5147 24.8674 1.5
    endloop
  endfacet
  facet normal 0.0980165 -0.995185 0
    outer loop
      vertex 27.1 24.925 1.5
      vertex 26.5147 24.8674 0
      vertex 27.1 24.925 0
    endloop
  endfacet
  facet normal 0.881922 0.471396 0
    outer loop
      vertex 24.6056 6.25829 1.5
      vertex 24.3284 6.77695 0
      vertex 24.3284 6.77695 1.5
    endloop
  endfacet
  facet normal 0.881922 0.471396 0
    outer loop
      vertex 24.3284 6.77695 0
      vertex 24.6056 6.25829 1.5
      vertex 24.6056 6.25829 0
    endloop
  endfacet
  facet normal 0.77301 0.634393 0
    outer loop
      vertex 24.9787 5.80368 1.5
      vertex 24.6056 6.25829 0
      vertex 24.6056 6.25829 1.5
    endloop
  endfacet
  facet normal 0.77301 0.634393 0
    outer loop
      vertex 24.6056 6.25829 0
      vertex 24.9787 5.80368 1.5
      vertex 24.9787 5.80368 0
    endloop
  endfacet
  facet normal -0.0980162 0.995185 0
    outer loop
      vertex 49.6853 4.98264 0
      vertex 49.1 4.925 1.5
      vertex 49.6853 4.98264 1.5
    endloop
  endfacet
  facet normal -0.0980162 0.995185 0
    outer loop
      vertex 49.1 4.925 1.5
      vertex 49.6853 4.98264 0
      vertex 49.1 4.925 0
    endloop
  endfacet
  facet normal -0.290285 0.95694 0
    outer loop
      vertex 50.2481 5.15336 0
      vertex 49.6853 4.98264 1.5
      vertex 50.2481 5.15336 1.5
    endloop
  endfacet
  facet normal -0.290285 0.95694 0
    outer loop
      vertex 49.6853 4.98264 1.5
      vertex 50.2481 5.15336 0
      vertex 49.6853 4.98264 0
    endloop
  endfacet
  facet normal -0.471398 0.881921 0
    outer loop
      vertex 50.7667 5.43059 0
      vertex 50.2481 5.15336 1.5
      vertex 50.7667 5.43059 1.5
    endloop
  endfacet
  facet normal -0.471398 0.881921 0
    outer loop
      vertex 50.2481 5.15336 1.5
      vertex 50.7667 5.43059 0
      vertex 50.2481 5.15336 0
    endloop
  endfacet
  facet normal 0.95694 -0.290285 0
    outer loop
      vertex 24.1576 22.5103 1.5
      vertex 24.3284 23.073 0
      vertex 24.3284 23.073 1.5
    endloop
  endfacet
  facet normal 0.95694 -0.290285 0
    outer loop
      vertex 24.3284 23.073 0
      vertex 24.1576 22.5103 1.5
      vertex 24.1576 22.5103 0
    endloop
  endfacet
  facet normal 0.290285 -0.95694 0
    outer loop
      vertex 25.952 24.6966 0
      vertex 26.5147 24.8674 1.5
      vertex 25.952 24.6966 1.5
    endloop
  endfacet
  facet normal 0.290285 -0.95694 0
    outer loop
      vertex 26.5147 24.8674 1.5
      vertex 25.952 24.6966 0
      vertex 26.5147 24.8674 0
    endloop
  endfacet
  facet normal -0.290285 -0.95694 0
    outer loop
      vertex 49.6853 24.8674 0
      vertex 50.2481 24.6966 1.5
      vertex 49.6853 24.8674 1.5
    endloop
  endfacet
  facet normal -0.290285 -0.95694 -0
    outer loop
      vertex 50.2481 24.6966 1.5
      vertex 49.6853 24.8674 0
      vertex 50.2481 24.6966 0
    endloop
  endfacet
  facet normal 0.634394 0.77301 -0
    outer loop
      vertex 25.4333 5.43059 0
      vertex 24.9787 5.80368 1.5
      vertex 25.4333 5.43059 1.5
    endloop
  endfacet
  facet normal 0.634394 0.77301 0
    outer loop
      vertex 24.9787 5.80368 1.5
      vertex 25.4333 5.43059 0
      vertex 24.9787 5.80368 0
    endloop
  endfacet
  facet normal 0.290285 0.95694 -0
    outer loop
      vertex 26.5147 4.98264 0
      vertex 25.952 5.15336 1.5
      vertex 26.5147 4.98264 1.5
    endloop
  endfacet
  facet normal 0.290285 0.95694 0
    outer loop
      vertex 25.952 5.15336 1.5
      vertex 26.5147 4.98264 0
      vertex 25.952 5.15336 0
    endloop
  endfacet
  facet normal -0.773011 -0.634393 0
    outer loop
      vertex 51.5944 23.5917 0
      vertex 51.2213 24.0463 1.5
      vertex 51.2213 24.0463 0
    endloop
  endfacet
  facet normal -0.773011 -0.634393 0
    outer loop
      vertex 51.2213 24.0463 1.5
      vertex 51.5944 23.5917 0
      vertex 51.5944 23.5917 1.5
    endloop
  endfacet
  facet normal -0.995185 -0.0980165 0
    outer loop
      vertex 52.1 21.925 0
      vertex 52.0424 22.5103 1.5
      vertex 52.0424 22.5103 0
    endloop
  endfacet
  facet normal -0.995185 -0.0980165 0
    outer loop
      vertex 52.0424 22.5103 1.5
      vertex 52.1 21.925 0
      vertex 52.1 21.925 1.5
    endloop
  endfacet
  facet normal -0.956941 -0.290282 0
    outer loop
      vertex 52.0424 22.5103 0
      vertex 51.8716 23.073 1.5
      vertex 51.8716 23.073 0
    endloop
  endfacet
  facet normal -0.956941 -0.290282 0
    outer loop
      vertex 51.8716 23.073 1.5
      vertex 52.0424 22.5103 0
      vertex 52.0424 22.5103 1.5
    endloop
  endfacet
  facet normal -0.634391 0.773012 0
    outer loop
      vertex 51.2213 5.80368 0
      vertex 50.7667 5.43059 1.5
      vertex 51.2213 5.80368 1.5
    endloop
  endfacet
  facet normal -0.634391 0.773012 0
    outer loop
      vertex 50.7667 5.43059 1.5
      vertex 51.2213 5.80368 0
      vertex 50.7667 5.43059 0
    endloop
  endfacet
  facet normal -0.77301 0.634393 0
    outer loop
      vertex 51.2213 5.80368 0
      vertex 51.5944 6.25829 1.5
      vertex 51.5944 6.25829 0
    endloop
  endfacet
  facet normal -0.77301 0.634393 0
    outer loop
      vertex 51.5944 6.25829 1.5
      vertex 51.2213 5.80368 0
      vertex 51.2213 5.80368 1.5
    endloop
  endfacet
  facet normal -0.881922 0.471396 0
    outer loop
      vertex 51.5944 6.25829 0
      vertex 51.8716 6.77695 1.5
      vertex 51.8716 6.77695 0
    endloop
  endfacet
  facet normal -0.881922 0.471396 0
    outer loop
      vertex 51.8716 6.77695 1.5
      vertex 51.5944 6.25829 0
      vertex 51.5944 6.25829 1.5
    endloop
  endfacet
  facet normal -0.881921 -0.471397 0
    outer loop
      vertex 51.8716 23.073 0
      vertex 51.5944 23.5917 1.5
      vertex 51.5944 23.5917 0
    endloop
  endfacet
  facet normal -0.881921 -0.471397 0
    outer loop
      vertex 51.5944 23.5917 1.5
      vertex 51.8716 23.073 0
      vertex 51.8716 23.073 1.5
    endloop
  endfacet
  facet normal -0.956941 0.290282 0
    outer loop
      vertex 51.8716 6.77695 0
      vertex 52.0424 7.33973 1.5
      vertex 52.0424 7.33973 0
    endloop
  endfacet
  facet normal -0.956941 0.290282 0
    outer loop
      vertex 52.0424 7.33973 1.5
      vertex 51.8716 6.77695 0
      vertex 51.8716 6.77695 1.5
    endloop
  endfacet
  facet normal -0.471395 -0.881922 0
    outer loop
      vertex 20.174 16.3108 0
      vertex 20.4334 16.1722 1.5
      vertex 20.174 16.3108 1.5
    endloop
  endfacet
  facet normal -0.471395 -0.881922 -0
    outer loop
      vertex 20.4334 16.1722 1.5
      vertex 20.174 16.3108 0
      vertex 20.4334 16.1722 0
    endloop
  endfacet
  facet normal -0.995184 0.098023 0
    outer loop
      vertex 21.0712 14.6324 0
      vertex 21.1 14.925 1.5
      vertex 21.1 14.925 0
    endloop
  endfacet
  facet normal -0.995184 0.098023 0
    outer loop
      vertex 21.1 14.925 1.5
      vertex 21.0712 14.6324 0
      vertex 21.0712 14.6324 1.5
    endloop
  endfacet
  facet normal 0.0980169 0.995185 -0
    outer loop
      vertex 19.6 13.425 0
      vertex 19.3074 13.4538 1.5
      vertex 19.6 13.425 1.5
    endloop
  endfacet
  facet normal 0.0980169 0.995185 0
    outer loop
      vertex 19.3074 13.4538 1.5
      vertex 19.6 13.425 0
      vertex 19.3074 13.4538 0
    endloop
  endfacet
  facet normal 0.471395 -0.881922 0
    outer loop
      vertex 18.7666 16.1722 0
      vertex 19.026 16.3108 1.5
      vertex 18.7666 16.1722 1.5
    endloop
  endfacet
  facet normal 0.471395 -0.881922 0
    outer loop
      vertex 19.026 16.3108 1.5
      vertex 18.7666 16.1722 0
      vertex 19.026 16.3108 0
    endloop
  endfacet
  facet normal 0.956941 -0.290282 0
    outer loop
      vertex 18.1288 15.2176 1.5
      vertex 18.2142 15.499 0
      vertex 18.2142 15.499 1.5
    endloop
  endfacet
  facet normal 0.956941 -0.290282 0
    outer loop
      vertex 18.2142 15.499 0
      vertex 18.1288 15.2176 1.5
      vertex 18.1288 15.2176 0
    endloop
  endfacet
  facet normal -0.77301 0.634394 0
    outer loop
      vertex 20.6607 13.8643 0
      vertex 20.8472 14.0916 1.5
      vertex 20.8472 14.0916 0
    endloop
  endfacet
  facet normal -0.77301 0.634394 0
    outer loop
      vertex 20.8472 14.0916 1.5
      vertex 20.6607 13.8643 0
      vertex 20.6607 13.8643 1.5
    endloop
  endfacet
  facet normal 0.77301 0.634394 0
    outer loop
      vertex 18.5393 13.8643 1.5
      vertex 18.3528 14.0916 0
      vertex 18.3528 14.0916 1.5
    endloop
  endfacet
  facet normal 0.77301 0.634394 0
    outer loop
      vertex 18.3528 14.0916 0
      vertex 18.5393 13.8643 1.5
      vertex 18.5393 13.8643 0
    endloop
  endfacet
  facet normal -0.956941 -0.290282 0
    outer loop
      vertex 21.0712 15.2176 0
      vertex 20.9858 15.499 1.5
      vertex 20.9858 15.499 0
    endloop
  endfacet
  facet normal -0.956941 -0.290282 0
    outer loop
      vertex 20.9858 15.499 1.5
      vertex 21.0712 15.2176 0
      vertex 21.0712 15.2176 1.5
    endloop
  endfacet
  facet normal -0.881922 -0.471395 0
    outer loop
      vertex 20.9858 15.499 0
      vertex 20.8472 15.7584 1.5
      vertex 20.8472 15.7584 0
    endloop
  endfacet
  facet normal -0.881922 -0.471395 0
    outer loop
      vertex 20.8472 15.7584 1.5
      vertex 20.9858 15.499 0
      vertex 20.9858 15.499 1.5
    endloop
  endfacet
  facet normal -0.77301 -0.634394 0
    outer loop
      vertex 20.8472 15.7584 0
      vertex 20.6607 15.9857 1.5
      vertex 20.6607 15.9857 0
    endloop
  endfacet
  facet normal -0.77301 -0.634394 0
    outer loop
      vertex 20.6607 15.9857 1.5
      vertex 20.8472 15.7584 0
      vertex 20.8472 15.7584 1.5
    endloop
  endfacet
  facet normal -0.634392 -0.773011 0
    outer loop
      vertex 20.4334 16.1722 0
      vertex 20.6607 15.9857 1.5
      vertex 20.4334 16.1722 1.5
    endloop
  endfacet
  facet normal -0.634392 -0.773011 -0
    outer loop
      vertex 20.6607 15.9857 1.5
      vertex 20.4334 16.1722 0
      vertex 20.6607 15.9857 0
    endloop
  endfacet
  facet normal -0.290288 -0.956939 0
    outer loop
      vertex 19.8926 16.3962 0
      vertex 20.174 16.3108 1.5
      vertex 19.8926 16.3962 1.5
    endloop
  endfacet
  facet normal -0.290288 -0.956939 -0
    outer loop
      vertex 20.174 16.3108 1.5
      vertex 19.8926 16.3962 0
      vertex 20.174 16.3108 0
    endloop
  endfacet
  facet normal 0.0980162 -0.995185 0
    outer loop
      vertex 19.3074 16.3962 0
      vertex 19.6 16.425 1.5
      vertex 19.3074 16.3962 1.5
    endloop
  endfacet
  facet normal 0.0980162 -0.995185 0
    outer loop
      vertex 19.6 16.425 1.5
      vertex 19.3074 16.3962 0
      vertex 19.6 16.425 0
    endloop
  endfacet
  facet normal 0.995185 0.0980165 0
    outer loop
      vertex 18.1288 14.6324 1.5
      vertex 18.1 14.925 0
      vertex 18.1 14.925 1.5
    endloop
  endfacet
  facet normal 0.995185 0.0980165 0
    outer loop
      vertex 18.1 14.925 0
      vertex 18.1288 14.6324 1.5
      vertex 18.1288 14.6324 0
    endloop
  endfacet
  facet normal 0.881922 -0.471395 0
    outer loop
      vertex 18.2142 15.499 1.5
      vertex 18.3528 15.7584 0
      vertex 18.3528 15.7584 1.5
    endloop
  endfacet
  facet normal 0.881922 -0.471395 0
    outer loop
      vertex 18.3528 15.7584 0
      vertex 18.2142 15.499 1.5
      vertex 18.2142 15.499 0
    endloop
  endfacet
  facet normal 0.634392 -0.773011 0
    outer loop
      vertex 18.5393 15.9857 0
      vertex 18.7666 16.1722 1.5
      vertex 18.5393 15.9857 1.5
    endloop
  endfacet
  facet normal 0.634392 -0.773011 0
    outer loop
      vertex 18.7666 16.1722 1.5
      vertex 18.5393 15.9857 0
      vertex 18.7666 16.1722 0
    endloop
  endfacet
  facet normal 0.290288 -0.956939 0
    outer loop
      vertex 19.026 16.3108 0
      vertex 19.3074 16.3962 1.5
      vertex 19.026 16.3108 1.5
    endloop
  endfacet
  facet normal 0.290288 -0.956939 0
    outer loop
      vertex 19.3074 16.3962 1.5
      vertex 19.026 16.3108 0
      vertex 19.3074 16.3962 0
    endloop
  endfacet
  facet normal 0.77301 -0.634394 0
    outer loop
      vertex 18.3528 15.7584 1.5
      vertex 18.5393 15.9857 0
      vertex 18.5393 15.9857 1.5
    endloop
  endfacet
  facet normal 0.77301 -0.634394 0
    outer loop
      vertex 18.5393 15.9857 0
      vertex 18.3528 15.7584 1.5
      vertex 18.3528 15.7584 0
    endloop
  endfacet
  facet normal -0.995184 -0.0980233 0
    outer loop
      vertex 21.1 14.925 0
      vertex 21.0712 15.2176 1.5
      vertex 21.0712 15.2176 0
    endloop
  endfacet
  facet normal -0.995184 -0.0980233 0
    outer loop
      vertex 21.0712 15.2176 1.5
      vertex 21.1 14.925 0
      vertex 21.1 14.925 1.5
    endloop
  endfacet
  facet normal -0.290285 0.95694 0
    outer loop
      vertex 20.174 13.5392 0
      vertex 19.8926 13.4538 1.5
      vertex 20.174 13.5392 1.5
    endloop
  endfacet
  facet normal -0.290285 0.95694 0
    outer loop
      vertex 19.8926 13.4538 1.5
      vertex 20.174 13.5392 0
      vertex 19.8926 13.4538 0
    endloop
  endfacet
  facet normal -0.881922 0.471395 0
    outer loop
      vertex 20.8472 14.0916 0
      vertex 20.9858 14.351 1.5
      vertex 20.9858 14.351 0
    endloop
  endfacet
  facet normal -0.881922 0.471395 0
    outer loop
      vertex 20.9858 14.351 1.5
      vertex 20.8472 14.0916 0
      vertex 20.8472 14.0916 1.5
    endloop
  endfacet
  facet normal -0.956941 0.290282 0
    outer loop
      vertex 20.9858 14.351 0
      vertex 21.0712 14.6324 1.5
      vertex 21.0712 14.6324 0
    endloop
  endfacet
  facet normal -0.956941 0.290282 0
    outer loop
      vertex 21.0712 14.6324 1.5
      vertex 20.9858 14.351 0
      vertex 20.9858 14.351 1.5
    endloop
  endfacet
  facet normal -0.471395 0.881922 0
    outer loop
      vertex 20.4334 13.6778 0
      vertex 20.174 13.5392 1.5
      vertex 20.4334 13.6778 1.5
    endloop
  endfacet
  facet normal -0.471395 0.881922 0
    outer loop
      vertex 20.174 13.5392 1.5
      vertex 20.4334 13.6778 0
      vertex 20.174 13.5392 0
    endloop
  endfacet
  facet normal -0.634394 0.77301 0
    outer loop
      vertex 20.6607 13.8643 0
      vertex 20.4334 13.6778 1.5
      vertex 20.6607 13.8643 1.5
    endloop
  endfacet
  facet normal -0.634394 0.77301 0
    outer loop
      vertex 20.4334 13.6778 1.5
      vertex 20.6607 13.8643 0
      vertex 20.4334 13.6778 0
    endloop
  endfacet
  facet normal -0.0980162 0.995185 0
    outer loop
      vertex 19.8926 13.4538 0
      vertex 19.6 13.425 1.5
      vertex 19.8926 13.4538 1.5
    endloop
  endfacet
  facet normal -0.0980162 0.995185 0
    outer loop
      vertex 19.6 13.425 1.5
      vertex 19.8926 13.4538 0
      vertex 19.6 13.425 0
    endloop
  endfacet
  facet normal 0.290285 0.95694 -0
    outer loop
      vertex 19.3074 13.4538 0
      vertex 19.026 13.5392 1.5
      vertex 19.3074 13.4538 1.5
    endloop
  endfacet
  facet normal 0.290285 0.95694 0
    outer loop
      vertex 19.026 13.5392 1.5
      vertex 19.3074 13.4538 0
      vertex 19.026 13.5392 0
    endloop
  endfacet
  facet normal 0.471395 0.881922 -0
    outer loop
      vertex 19.026 13.5392 0
      vertex 18.7666 13.6778 1.5
      vertex 19.026 13.5392 1.5
    endloop
  endfacet
  facet normal 0.471395 0.881922 0
    outer loop
      vertex 18.7666 13.6778 1.5
      vertex 19.026 13.5392 0
      vertex 18.7666 13.6778 0
    endloop
  endfacet
  facet normal 0.956941 0.290282 0
    outer loop
      vertex 18.2142 14.351 1.5
      vertex 18.1288 14.6324 0
      vertex 18.1288 14.6324 1.5
    endloop
  endfacet
  facet normal 0.956941 0.290282 0
    outer loop
      vertex 18.1288 14.6324 0
      vertex 18.2142 14.351 1.5
      vertex 18.2142 14.351 0
    endloop
  endfacet
  facet normal -0.0980169 -0.995185 0
    outer loop
      vertex 19.6 16.425 0
      vertex 19.8926 16.3962 1.5
      vertex 19.6 16.425 1.5
    endloop
  endfacet
  facet normal -0.0980169 -0.995185 -0
    outer loop
      vertex 19.8926 16.3962 1.5
      vertex 19.6 16.425 0
      vertex 19.8926 16.3962 0
    endloop
  endfacet
  facet normal 0.995185 -0.0980169 0
    outer loop
      vertex 18.1 14.925 1.5
      vertex 18.1288 15.2176 0
      vertex 18.1288 15.2176 1.5
    endloop
  endfacet
  facet normal 0.995185 -0.0980169 0
    outer loop
      vertex 18.1288 15.2176 0
      vertex 18.1 14.925 1.5
      vertex 18.1 14.925 0
    endloop
  endfacet
  facet normal 0.881922 0.471395 0
    outer loop
      vertex 18.3528 14.0916 1.5
      vertex 18.2142 14.351 0
      vertex 18.2142 14.351 1.5
    endloop
  endfacet
  facet normal 0.881922 0.471395 0
    outer loop
      vertex 18.2142 14.351 0
      vertex 18.3528 14.0916 1.5
      vertex 18.3528 14.0916 0
    endloop
  endfacet
  facet normal 0.634394 0.77301 -0
    outer loop
      vertex 18.7666 13.6778 0
      vertex 18.5393 13.8643 1.5
      vertex 18.7666 13.6778 1.5
    endloop
  endfacet
  facet normal 0.634394 0.77301 0
    outer loop
      vertex 18.5393 13.8643 1.5
      vertex 18.7666 13.6778 0
      vertex 18.5393 13.8643 0
    endloop
  endfacet
  facet normal -0.471395 -0.881922 0
    outer loop
      vertex 57.174 16.3108 0
      vertex 57.4334 16.1722 1.5
      vertex 57.174 16.3108 1.5
    endloop
  endfacet
  facet normal -0.471395 -0.881922 -0
    outer loop
      vertex 57.4334 16.1722 1.5
      vertex 57.174 16.3108 0
      vertex 57.4334 16.1722 0
    endloop
  endfacet
  facet normal -0.995185 0.0980101 0
    outer loop
      vertex 58.0712 14.6324 0
      vertex 58.1 14.925 1.5
      vertex 58.1 14.925 0
    endloop
  endfacet
  facet normal -0.995185 0.0980101 0
    outer loop
      vertex 58.1 14.925 1.5
      vertex 58.0712 14.6324 0
      vertex 58.0712 14.6324 1.5
    endloop
  endfacet
  facet normal 0.0980175 0.995185 -0
    outer loop
      vertex 56.6 13.425 0
      vertex 56.3074 13.4538 1.5
      vertex 56.6 13.425 1.5
    endloop
  endfacet
  facet normal 0.0980175 0.995185 0
    outer loop
      vertex 56.3074 13.4538 1.5
      vertex 56.6 13.425 0
      vertex 56.3074 13.4538 0
    endloop
  endfacet
  facet normal 0.471395 -0.881922 0
    outer loop
      vertex 55.7666 16.1722 0
      vertex 56.026 16.3108 1.5
      vertex 55.7666 16.1722 1.5
    endloop
  endfacet
  facet normal 0.471395 -0.881922 0
    outer loop
      vertex 56.026 16.3108 1.5
      vertex 55.7666 16.1722 0
      vertex 56.026 16.3108 0
    endloop
  endfacet
  facet normal 0.956941 -0.290282 0
    outer loop
      vertex 55.1288 15.2176 1.5
      vertex 55.2142 15.499 0
      vertex 55.2142 15.499 1.5
    endloop
  endfacet
  facet normal 0.956941 -0.290282 0
    outer loop
      vertex 55.2142 15.499 0
      vertex 55.1288 15.2176 1.5
      vertex 55.1288 15.2176 0
    endloop
  endfacet
  facet normal -0.773013 0.63439 0
    outer loop
      vertex 57.6607 13.8643 0
      vertex 57.8472 14.0916 1.5
      vertex 57.8472 14.0916 0
    endloop
  endfacet
  facet normal -0.773013 0.63439 0
    outer loop
      vertex 57.8472 14.0916 1.5
      vertex 57.6607 13.8643 0
      vertex 57.6607 13.8643 1.5
    endloop
  endfacet
  facet normal 0.773006 0.634398 0
    outer loop
      vertex 55.5393 13.8643 1.5
      vertex 55.3528 14.0916 0
      vertex 55.3528 14.0916 1.5
    endloop
  endfacet
  facet normal 0.773006 0.634398 0
    outer loop
      vertex 55.3528 14.0916 0
      vertex 55.5393 13.8643 1.5
      vertex 55.5393 13.8643 0
    endloop
  endfacet
  facet normal -0.956938 -0.290294 0
    outer loop
      vertex 58.0712 15.2176 0
      vertex 57.9858 15.499 1.5
      vertex 57.9858 15.499 0
    endloop
  endfacet
  facet normal -0.956938 -0.290294 0
    outer loop
      vertex 57.9858 15.499 1.5
      vertex 58.0712 15.2176 0
      vertex 58.0712 15.2176 1.5
    endloop
  endfacet
  facet normal -0.881922 -0.471395 0
    outer loop
      vertex 57.9858 15.499 0
      vertex 57.8472 15.7584 1.5
      vertex 57.8472 15.7584 0
    endloop
  endfacet
  facet normal -0.881922 -0.471395 0
    outer loop
      vertex 57.8472 15.7584 1.5
      vertex 57.9858 15.499 0
      vertex 57.9858 15.499 1.5
    endloop
  endfacet
  facet normal -0.773013 -0.63439 0
    outer loop
      vertex 57.8472 15.7584 0
      vertex 57.6607 15.9857 1.5
      vertex 57.6607 15.9857 0
    endloop
  endfacet
  facet normal -0.773013 -0.63439 0
    outer loop
      vertex 57.6607 15.9857 1.5
      vertex 57.8472 15.7584 0
      vertex 57.8472 15.7584 1.5
    endloop
  endfacet
  facet normal -0.634389 -0.773014 0
    outer loop
      vertex 57.4334 16.1722 0
      vertex 57.6607 15.9857 1.5
      vertex 57.4334 16.1722 1.5
    endloop
  endfacet
  facet normal -0.634389 -0.773014 -0
    outer loop
      vertex 57.6607 15.9857 1.5
      vertex 57.4334 16.1722 0
      vertex 57.6607 15.9857 0
    endloop
  endfacet
  facet normal -0.29029 -0.956939 0
    outer loop
      vertex 56.8926 16.3962 0
      vertex 57.174 16.3108 1.5
      vertex 56.8926 16.3962 1.5
    endloop
  endfacet
  facet normal -0.29029 -0.956939 -0
    outer loop
      vertex 57.174 16.3108 1.5
      vertex 56.8926 16.3962 0
      vertex 57.174 16.3108 0
    endloop
  endfacet
  facet normal 0.0980175 -0.995185 0
    outer loop
      vertex 56.3074 16.3962 0
      vertex 56.6 16.425 1.5
      vertex 56.3074 16.3962 1.5
    endloop
  endfacet
  facet normal 0.0980175 -0.995185 0
    outer loop
      vertex 56.6 16.425 1.5
      vertex 56.3074 16.3962 0
      vertex 56.6 16.425 0
    endloop
  endfacet
  facet normal 0.995184 0.098023 0
    outer loop
      vertex 55.1288 14.6324 1.5
      vertex 55.1 14.925 0
      vertex 55.1 14.925 1.5
    endloop
  endfacet
  facet normal 0.995184 0.098023 0
    outer loop
      vertex 55.1 14.925 0
      vertex 55.1288 14.6324 1.5
      vertex 55.1288 14.6324 0
    endloop
  endfacet
  facet normal 0.881922 -0.471395 0
    outer loop
      vertex 55.2142 15.499 1.5
      vertex 55.3528 15.7584 0
      vertex 55.3528 15.7584 1.5
    endloop
  endfacet
  facet normal 0.881922 -0.471395 0
    outer loop
      vertex 55.3528 15.7584 0
      vertex 55.2142 15.499 1.5
      vertex 55.2142 15.499 0
    endloop
  endfacet
  facet normal 0.634395 -0.773009 0
    outer loop
      vertex 55.5393 15.9857 0
      vertex 55.7666 16.1722 1.5
      vertex 55.5393 15.9857 1.5
    endloop
  endfacet
  facet normal 0.634395 -0.773009 0
    outer loop
      vertex 55.7666 16.1722 1.5
      vertex 55.5393 15.9857 0
      vertex 55.7666 16.1722 0
    endloop
  endfacet
  facet normal 0.290286 -0.95694 0
    outer loop
      vertex 56.026 16.3108 0
      vertex 56.3074 16.3962 1.5
      vertex 56.026 16.3108 1.5
    endloop
  endfacet
  facet normal 0.290286 -0.95694 0
    outer loop
      vertex 56.3074 16.3962 1.5
      vertex 56.026 16.3108 0
      vertex 56.3074 16.3962 0
    endloop
  endfacet
  facet normal 0.773006 -0.634398 0
    outer loop
      vertex 55.3528 15.7584 1.5
      vertex 55.5393 15.9857 0
      vertex 55.5393 15.9857 1.5
    endloop
  endfacet
  facet normal 0.773006 -0.634398 0
    outer loop
      vertex 55.5393 15.9857 0
      vertex 55.3528 15.7584 1.5
      vertex 55.3528 15.7584 0
    endloop
  endfacet
  facet normal -0.995185 -0.0980104 0
    outer loop
      vertex 58.1 14.925 0
      vertex 58.0712 15.2176 1.5
      vertex 58.0712 15.2176 0
    endloop
  endfacet
  facet normal -0.995185 -0.0980104 0
    outer loop
      vertex 58.0712 15.2176 1.5
      vertex 58.1 14.925 0
      vertex 58.1 14.925 1.5
    endloop
  endfacet
  facet normal -0.290287 0.95694 0
    outer loop
      vertex 57.174 13.5392 0
      vertex 56.8926 13.4538 1.5
      vertex 57.174 13.5392 1.5
    endloop
  endfacet
  facet normal -0.290287 0.95694 0
    outer loop
      vertex 56.8926 13.4538 1.5
      vertex 57.174 13.5392 0
      vertex 56.8926 13.4538 0
    endloop
  endfacet
  facet normal -0.881922 0.471395 0
    outer loop
      vertex 57.8472 14.0916 0
      vertex 57.9858 14.351 1.5
      vertex 57.9858 14.351 0
    endloop
  endfacet
  facet normal -0.881922 0.471395 0
    outer loop
      vertex 57.9858 14.351 1.5
      vertex 57.8472 14.0916 0
      vertex 57.8472 14.0916 1.5
    endloop
  endfacet
  facet normal -0.956938 0.290294 0
    outer loop
      vertex 57.9858 14.351 0
      vertex 58.0712 14.6324 1.5
      vertex 58.0712 14.6324 0
    endloop
  endfacet
  facet normal -0.956938 0.290294 0
    outer loop
      vertex 58.0712 14.6324 1.5
      vertex 57.9858 14.351 0
      vertex 57.9858 14.351 1.5
    endloop
  endfacet
  facet normal -0.471395 0.881922 0
    outer loop
      vertex 57.4334 13.6778 0
      vertex 57.174 13.5392 1.5
      vertex 57.4334 13.6778 1.5
    endloop
  endfacet
  facet normal -0.471395 0.881922 0
    outer loop
      vertex 57.174 13.5392 1.5
      vertex 57.4334 13.6778 0
      vertex 57.174 13.5392 0
    endloop
  endfacet
  facet normal -0.634391 0.773012 0
    outer loop
      vertex 57.6607 13.8643 0
      vertex 57.4334 13.6778 1.5
      vertex 57.6607 13.8643 1.5
    endloop
  endfacet
  facet normal -0.634391 0.773012 0
    outer loop
      vertex 57.4334 13.6778 1.5
      vertex 57.6607 13.8643 0
      vertex 57.4334 13.6778 0
    endloop
  endfacet
  facet normal -0.0980162 0.995185 0
    outer loop
      vertex 56.8926 13.4538 0
      vertex 56.6 13.425 1.5
      vertex 56.8926 13.4538 1.5
    endloop
  endfacet
  facet normal -0.0980162 0.995185 0
    outer loop
      vertex 56.6 13.425 1.5
      vertex 56.8926 13.4538 0
      vertex 56.6 13.425 0
    endloop
  endfacet
  facet normal 0.290283 0.956941 -0
    outer loop
      vertex 56.3074 13.4538 0
      vertex 56.026 13.5392 1.5
      vertex 56.3074 13.4538 1.5
    endloop
  endfacet
  facet normal 0.290283 0.956941 0
    outer loop
      vertex 56.026 13.5392 1.5
      vertex 56.3074 13.4538 0
      vertex 56.026 13.5392 0
    endloop
  endfacet
  facet normal 0.471395 0.881922 -0
    outer loop
      vertex 56.026 13.5392 0
      vertex 55.7666 13.6778 1.5
      vertex 56.026 13.5392 1.5
    endloop
  endfacet
  facet normal 0.471395 0.881922 0
    outer loop
      vertex 55.7666 13.6778 1.5
      vertex 56.026 13.5392 0
      vertex 55.7666 13.6778 0
    endloop
  endfacet
  facet normal 0.956941 0.290282 0
    outer loop
      vertex 55.2142 14.351 1.5
      vertex 55.1288 14.6324 0
      vertex 55.1288 14.6324 1.5
    endloop
  endfacet
  facet normal 0.956941 0.290282 0
    outer loop
      vertex 55.1288 14.6324 0
      vertex 55.2142 14.351 1.5
      vertex 55.2142 14.351 0
    endloop
  endfacet
  facet normal -0.0980162 -0.995185 0
    outer loop
      vertex 56.6 16.425 0
      vertex 56.8926 16.3962 1.5
      vertex 56.6 16.425 1.5
    endloop
  endfacet
  facet normal -0.0980162 -0.995185 -0
    outer loop
      vertex 56.8926 16.3962 1.5
      vertex 56.6 16.425 0
      vertex 56.8926 16.3962 0
    endloop
  endfacet
  facet normal 0.995184 -0.0980233 0
    outer loop
      vertex 55.1 14.925 1.5
      vertex 55.1288 15.2176 0
      vertex 55.1288 15.2176 1.5
    endloop
  endfacet
  facet normal 0.995184 -0.0980233 0
    outer loop
      vertex 55.1288 15.2176 0
      vertex 55.1 14.925 1.5
      vertex 55.1 14.925 0
    endloop
  endfacet
  facet normal 0.881922 0.471395 0
    outer loop
      vertex 55.3528 14.0916 1.5
      vertex 55.2142 14.351 0
      vertex 55.2142 14.351 1.5
    endloop
  endfacet
  facet normal 0.881922 0.471395 0
    outer loop
      vertex 55.2142 14.351 0
      vertex 55.3528 14.0916 1.5
      vertex 55.3528 14.0916 0
    endloop
  endfacet
  facet normal 0.634397 0.773007 -0
    outer loop
      vertex 55.7666 13.6778 0
      vertex 55.5393 13.8643 1.5
      vertex 55.7666 13.6778 1.5
    endloop
  endfacet
  facet normal 0.634397 0.773007 0
    outer loop
      vertex 55.5393 13.8643 1.5
      vertex 55.7666 13.6778 0
      vertex 55.5393 13.8643 0
    endloop
  endfacet
  facet normal -0.634393 -0.773011 0
    outer loop
      vertex 15.1023 34.4175 0
      vertex 16.38 33.3689 1.5
      vertex 15.1023 34.4175 1.5
    endloop
  endfacet
  facet normal -0.634393 -0.773011 -0
    outer loop
      vertex 16.38 33.3689 1.5
      vertex 15.1023 34.4175 0
      vertex 16.38 33.3689 0
    endloop
  endfacet
  facet normal 0.290285 0.95694 -0
    outer loop
      vertex 8.72173 19.0133 0
      vertex 7.12719 19.497 1.5
      vertex 8.72173 19.0133 1.5
    endloop
  endfacet
  facet normal 0.290285 0.95694 0
    outer loop
      vertex 7.12719 19.497 1.5
      vertex 8.72173 19.0133 0
      vertex 7.12719 19.497 0
    endloop
  endfacet
  facet normal 0.290285 -0.95694 0
    outer loop
      vertex 7.12719 35.203 0
      vertex 8.72173 35.6867 1.5
      vertex 7.12719 35.203 1.5
    endloop
  endfacet
  facet normal 0.290285 -0.95694 0
    outer loop
      vertex 8.72173 35.6867 1.5
      vertex 7.12719 35.203 0
      vertex 8.72173 35.6867 0
    endloop
  endfacet
  facet normal -0.471397 -0.881921 0
    outer loop
      vertex 13.6328 35.203 0
      vertex 15.1023 34.4175 1.5
      vertex 13.6328 35.203 1.5
    endloop
  endfacet
  facet normal -0.471397 -0.881921 -0
    outer loop
      vertex 15.1023 34.4175 1.5
      vertex 13.6328 35.203 0
      vertex 15.1023 34.4175 0
    endloop
  endfacet
  facet normal -0.0980156 -0.995185 0
    outer loop
      vertex 10.38 35.85 0
      vertex 12.0383 35.6867 1.5
      vertex 10.38 35.85 1.5
    endloop
  endfacet
  facet normal -0.0980156 -0.995185 -0
    outer loop
      vertex 12.0383 35.6867 1.5
      vertex 10.38 35.85 0
      vertex 12.0383 35.6867 0
    endloop
  endfacet
  facet normal 0.471397 -0.881921 0
    outer loop
      vertex 5.65765 34.4175 0
      vertex 7.12719 35.203 1.5
      vertex 5.65765 34.4175 1.5
    endloop
  endfacet
  facet normal 0.471397 -0.881921 0
    outer loop
      vertex 7.12719 35.203 1.5
      vertex 5.65765 34.4175 0
      vertex 7.12719 35.203 0
    endloop
  endfacet
  facet normal 0.0980156 -0.995185 0
    outer loop
      vertex 8.72173 35.6867 0
      vertex 10.38 35.85 1.5
      vertex 8.72173 35.6867 1.5
    endloop
  endfacet
  facet normal 0.0980156 -0.995185 0
    outer loop
      vertex 10.38 35.85 1.5
      vertex 8.72173 35.6867 0
      vertex 10.38 35.85 0
    endloop
  endfacet
  facet normal 0.634393 -0.773011 0
    outer loop
      vertex 4.38 33.3689 0
      vertex 5.65765 34.4175 1.5
      vertex 4.38 33.3689 1.5
    endloop
  endfacet
  facet normal 0.634393 -0.773011 0
    outer loop
      vertex 5.65765 34.4175 1.5
      vertex 4.38 33.3689 0
      vertex 5.65765 34.4175 0
    endloop
  endfacet
  facet normal -0.0980167 0.995185 0
    outer loop
      vertex 12.0383 19.0133 0
      vertex 10.38 18.85 1.5
      vertex 12.0383 19.0133 1.5
    endloop
  endfacet
  facet normal -0.0980167 0.995185 0
    outer loop
      vertex 10.38 18.85 1.5
      vertex 12.0383 19.0133 0
      vertex 10.38 18.85 0
    endloop
  endfacet
  facet normal -0.290285 0.95694 0
    outer loop
      vertex 13.6328 19.497 0
      vertex 12.0383 19.0133 1.5
      vertex 13.6328 19.497 1.5
    endloop
  endfacet
  facet normal -0.290285 0.95694 0
    outer loop
      vertex 12.0383 19.0133 1.5
      vertex 13.6328 19.497 0
      vertex 12.0383 19.0133 0
    endloop
  endfacet
  facet normal -0.471397 0.881921 0
    outer loop
      vertex 15.1023 20.2825 0
      vertex 13.6328 19.497 1.5
      vertex 15.1023 20.2825 1.5
    endloop
  endfacet
  facet normal -0.471397 0.881921 0
    outer loop
      vertex 13.6328 19.497 1.5
      vertex 15.1023 20.2825 0
      vertex 13.6328 19.497 0
    endloop
  endfacet
  facet normal 0.0980167 0.995185 -0
    outer loop
      vertex 10.38 18.85 0
      vertex 8.72173 19.0133 1.5
      vertex 10.38 18.85 1.5
    endloop
  endfacet
  facet normal 0.0980167 0.995185 0
    outer loop
      vertex 8.72173 19.0133 1.5
      vertex 10.38 18.85 0
      vertex 8.72173 19.0133 0
    endloop
  endfacet
  facet normal 0.471397 0.881921 -0
    outer loop
      vertex 7.12719 19.497 0
      vertex 5.65765 20.2825 1.5
      vertex 7.12719 19.497 1.5
    endloop
  endfacet
  facet normal 0.471397 0.881921 0
    outer loop
      vertex 5.65765 20.2825 1.5
      vertex 7.12719 19.497 0
      vertex 5.65765 20.2825 0
    endloop
  endfacet
  facet normal 0.634393 0.773011 -0
    outer loop
      vertex 5.65765 20.2825 0
      vertex 4.38 21.3311 1.5
      vertex 5.65765 20.2825 1.5
    endloop
  endfacet
  facet normal 0.634393 0.773011 0
    outer loop
      vertex 4.38 21.3311 1.5
      vertex 5.65765 20.2825 0
      vertex 4.38 21.3311 0
    endloop
  endfacet
  facet normal -0.290285 -0.95694 0
    outer loop
      vertex 12.0383 35.6867 0
      vertex 13.6328 35.203 1.5
      vertex 12.0383 35.6867 1.5
    endloop
  endfacet
  facet normal -0.290285 -0.95694 -0
    outer loop
      vertex 13.6328 35.203 1.5
      vertex 12.0383 35.6867 0
      vertex 13.6328 35.203 0
    endloop
  endfacet
  facet normal -0.634393 0.773011 0
    outer loop
      vertex 16.38 21.3311 0
      vertex 15.1023 20.2825 1.5
      vertex 16.38 21.3311 1.5
    endloop
  endfacet
  facet normal -0.634393 0.773011 0
    outer loop
      vertex 15.1023 20.2825 1.5
      vertex 16.38 21.3311 0
      vertex 15.1023 20.2825 0
    endloop
  endfacet
  facet normal 1 -0 0
    outer loop
      vertex 4.38 21.3311 1.5
      vertex 4.38 33.3689 0
      vertex 4.38 33.3689 1.5
    endloop
  endfacet
  facet normal 1 0 0
    outer loop
      vertex 4.38 33.3689 0
      vertex 4.38 21.3311 1.5
      vertex 4.38 21.3311 0
    endloop
  endfacet
  facet normal -1 0 0
    outer loop
      vertex 16.38 21.3311 0
      vertex 16.38 33.3689 1.5
      vertex 16.38 33.3689 0
    endloop
  endfacet
  facet normal -1 -0 0
    outer loop
      vertex 16.38 33.3689 1.5
      vertex 16.38 21.3311 0
      vertex 16.38 21.3311 1.5
    endloop
  endfacet
  facet normal -0.634392 -0.773012 0
    outer loop
      vertex 70.5423 34.4175 0
      vertex 71.82 33.3689 1.5
      vertex 70.5423 34.4175 1.5
    endloop
  endfacet
  facet normal -0.634392 -0.773012 -0
    outer loop
      vertex 71.82 33.3689 1.5
      vertex 70.5423 34.4175 0
      vertex 71.82 33.3689 0
    endloop
  endfacet
  facet normal 0.290285 0.95694 -0
    outer loop
      vertex 64.1617 19.0133 0
      vertex 62.5672 19.497 1.5
      vertex 64.1617 19.0133 1.5
    endloop
  endfacet
  facet normal 0.290285 0.95694 0
    outer loop
      vertex 62.5672 19.497 1.5
      vertex 64.1617 19.0133 0
      vertex 62.5672 19.497 0
    endloop
  endfacet
  facet normal 0.290285 -0.95694 0
    outer loop
      vertex 62.5672 35.203 0
      vertex 64.1617 35.6867 1.5
      vertex 62.5672 35.203 1.5
    endloop
  endfacet
  facet normal 0.290285 -0.95694 0
    outer loop
      vertex 64.1617 35.6867 1.5
      vertex 62.5672 35.203 0
      vertex 64.1617 35.6867 0
    endloop
  endfacet
  facet normal -0.471397 -0.881921 0
    outer loop
      vertex 69.0728 35.203 0
      vertex 70.5423 34.4175 1.5
      vertex 69.0728 35.203 1.5
    endloop
  endfacet
  facet normal -0.471397 -0.881921 -0
    outer loop
      vertex 70.5423 34.4175 1.5
      vertex 69.0728 35.203 0
      vertex 70.5423 34.4175 0
    endloop
  endfacet
  facet normal -0.0980158 -0.995185 0
    outer loop
      vertex 65.82 35.85 0
      vertex 67.4783 35.6867 1.5
      vertex 65.82 35.85 1.5
    endloop
  endfacet
  facet normal -0.0980158 -0.995185 -0
    outer loop
      vertex 67.4783 35.6867 1.5
      vertex 65.82 35.85 0
      vertex 67.4783 35.6867 0
    endloop
  endfacet
  facet normal 0.471396 -0.881922 0
    outer loop
      vertex 61.0977 34.4175 0
      vertex 62.5672 35.203 1.5
      vertex 61.0977 34.4175 1.5
    endloop
  endfacet
  facet normal 0.471396 -0.881922 0
    outer loop
      vertex 62.5672 35.203 1.5
      vertex 61.0977 34.4175 0
      vertex 62.5672 35.203 0
    endloop
  endfacet
  facet normal 0.0980158 -0.995185 0
    outer loop
      vertex 64.1617 35.6867 0
      vertex 65.82 35.85 1.5
      vertex 64.1617 35.6867 1.5
    endloop
  endfacet
  facet normal 0.0980158 -0.995185 0
    outer loop
      vertex 65.82 35.85 1.5
      vertex 64.1617 35.6867 0
      vertex 65.82 35.85 0
    endloop
  endfacet
  facet normal 0.634393 -0.773011 0
    outer loop
      vertex 59.82 33.3689 0
      vertex 61.0977 34.4175 1.5
      vertex 59.82 33.3689 1.5
    endloop
  endfacet
  facet normal 0.634393 -0.773011 0
    outer loop
      vertex 61.0977 34.4175 1.5
      vertex 59.82 33.3689 0
      vertex 61.0977 34.4175 0
    endloop
  endfacet
  facet normal -0.0980169 0.995185 0
    outer loop
      vertex 67.4783 19.0133 0
      vertex 65.82 18.85 1.5
      vertex 67.4783 19.0133 1.5
    endloop
  endfacet
  facet normal -0.0980169 0.995185 0
    outer loop
      vertex 65.82 18.85 1.5
      vertex 67.4783 19.0133 0
      vertex 65.82 18.85 0
    endloop
  endfacet
  facet normal -0.290285 0.95694 0
    outer loop
      vertex 69.0728 19.497 0
      vertex 67.4783 19.0133 1.5
      vertex 69.0728 19.497 1.5
    endloop
  endfacet
  facet normal -0.290285 0.95694 0
    outer loop
      vertex 67.4783 19.0133 1.5
      vertex 69.0728 19.497 0
      vertex 67.4783 19.0133 0
    endloop
  endfacet
  facet normal -0.471397 0.881921 0
    outer loop
      vertex 70.5423 20.2825 0
      vertex 69.0728 19.497 1.5
      vertex 70.5423 20.2825 1.5
    endloop
  endfacet
  facet normal -0.471397 0.881921 0
    outer loop
      vertex 69.0728 19.497 1.5
      vertex 70.5423 20.2825 0
      vertex 69.0728 19.497 0
    endloop
  endfacet
  facet normal 0.0980169 0.995185 -0
    outer loop
      vertex 65.82 18.85 0
      vertex 64.1617 19.0133 1.5
      vertex 65.82 18.85 1.5
    endloop
  endfacet
  facet normal 0.0980169 0.995185 0
    outer loop
      vertex 64.1617 19.0133 1.5
      vertex 65.82 18.85 0
      vertex 64.1617 19.0133 0
    endloop
  endfacet
  facet normal 0.471396 0.881922 -0
    outer loop
      vertex 62.5672 19.497 0
      vertex 61.0977 20.2825 1.5
      vertex 62.5672 19.497 1.5
    endloop
  endfacet
  facet normal 0.471396 0.881922 0
    outer loop
      vertex 61.0977 20.2825 1.5
      vertex 62.5672 19.497 0
      vertex 61.0977 20.2825 0
    endloop
  endfacet
  facet normal 0.634393 0.773011 -0
    outer loop
      vertex 61.0977 20.2825 0
      vertex 59.82 21.3311 1.5
      vertex 61.0977 20.2825 1.5
    endloop
  endfacet
  facet normal 0.634393 0.773011 0
    outer loop
      vertex 59.82 21.3311 1.5
      vertex 61.0977 20.2825 0
      vertex 59.82 21.3311 0
    endloop
  endfacet
  facet normal -0.290285 -0.95694 0
    outer loop
      vertex 67.4783 35.6867 0
      vertex 69.0728 35.203 1.5
      vertex 67.4783 35.6867 1.5
    endloop
  endfacet
  facet normal -0.290285 -0.95694 -0
    outer loop
      vertex 69.0728 35.203 1.5
      vertex 67.4783 35.6867 0
      vertex 69.0728 35.203 0
    endloop
  endfacet
  facet normal -0.634392 0.773012 0
    outer loop
      vertex 71.82 21.3311 0
      vertex 70.5423 20.2825 1.5
      vertex 71.82 21.3311 1.5
    endloop
  endfacet
  facet normal -0.634392 0.773012 0
    outer loop
      vertex 70.5423 20.2825 1.5
      vertex 71.82 21.3311 0
      vertex 70.5423 20.2825 0
    endloop
  endfacet
  facet normal 1 -0 0
    outer loop
      vertex 59.82 21.3311 1.5
      vertex 59.82 33.3689 0
      vertex 59.82 33.3689 1.5
    endloop
  endfacet
  facet normal 1 0 0
    outer loop
      vertex 59.82 33.3689 0
      vertex 59.82 21.3311 1.5
      vertex 59.82 21.3311 0
    endloop
  endfacet
  facet normal -1 0 0
    outer loop
      vertex 71.82 21.3311 0
      vertex 71.82 33.3689 1.5
      vertex 71.82 33.3689 0
    endloop
  endfacet
  facet normal -1 -0 0
    outer loop
      vertex 71.82 33.3689 1.5
      vertex 71.82 21.3311 0
      vertex 71.82 21.3311 1.5
    endloop
  endfacet
  facet normal -1 0 0
    outer loop
      vertex 0 0 0
      vertex 0 39.7 1.5
      vertex 0 39.7 0
    endloop
  endfacet
  facet normal -1 -0 0
    outer loop
      vertex 0 39.7 1.5
      vertex 0 0 0
      vertex 0 0 1.5
    endloop
  endfacet
  facet normal 0 0 1
    outer loop
      vertex 71.82 21.3311 1.5
      vertex 76.2 39.7 1.5
      vertex 71.82 33.3689 1.5
    endloop
  endfacet
  facet normal 0 0 1
    outer loop
      vertex 76.2 39.7 1.5
      vertex 70.5423 34.4175 1.5
      vertex 71.82 33.3689 1.5
    endloop
  endfacet
  facet normal 0 0 1
    outer loop
      vertex 76.2 39.7 1.5
      vertex 69.0728 35.203 1.5
      vertex 70.5423 34.4175 1.5
    endloop
  endfacet
  facet normal 0 0 1
    outer loop
      vertex 76.2 39.7 1.5
      vertex 67.4783 35.6867 1.5
      vertex 69.0728 35.203 1.5
    endloop
  endfacet
  facet normal 0 0 1
    outer loop
      vertex 76.2 39.7 1.5
      vertex 65.82 35.85 1.5
      vertex 67.4783 35.6867 1.5
    endloop
  endfacet
  facet normal 0 0 1
    outer loop
      vertex 76.2 39.7 1.5
      vertex 64.1617 35.6867 1.5
      vertex 65.82 35.85 1.5
    endloop
  endfacet
  facet normal 0 0 1
    outer loop
      vertex 12.0383 35.6867 1.5
      vertex 64.1617 35.6867 1.5
      vertex 76.2 39.7 1.5
    endloop
  endfacet
  facet normal -0 0 1
    outer loop
      vertex 51.5944 23.5917 1.5
      vertex 59.82 21.3311 1.5
      vertex 59.82 33.3689 1.5
    endloop
  endfacet
  facet normal 0 0 1
    outer loop
      vertex 59.82 21.3311 1.5
      vertex 58.0712 15.2176 1.5
      vertex 58.1 14.925 1.5
    endloop
  endfacet
  facet normal 0 0 1
    outer loop
      vertex 59.82 21.3311 1.5
      vertex 57.9858 15.499 1.5
      vertex 58.0712 15.2176 1.5
    endloop
  endfacet
  facet normal 0 0 1
    outer loop
      vertex 59.82 21.3311 1.5
      vertex 57.8472 15.7584 1.5
      vertex 57.9858 15.499 1.5
    endloop
  endfacet
  facet normal 0 0 1
    outer loop
      vertex 59.82 21.3311 1.5
      vertex 57.6607 15.9857 1.5
      vertex 57.8472 15.7584 1.5
    endloop
  endfacet
  facet normal 0 0 1
    outer loop
      vertex 59.82 21.3311 1.5
      vertex 57.4334 16.1722 1.5
      vertex 57.6607 15.9857 1.5
    endloop
  endfacet
  facet normal 0 0 1
    outer loop
      vertex 59.82 21.3311 1.5
      vertex 57.174 16.3108 1.5
      vertex 57.4334 16.1722 1.5
    endloop
  endfacet
  facet normal -0 -0 1
    outer loop
      vertex 52.1 21.925 1.5
      vertex 59.82 21.3311 1.5
      vertex 52.0424 22.5103 1.5
    endloop
  endfacet
  facet normal 0 0 1
    outer loop
      vertex 59.82 21.3311 1.5
      vertex 56.8926 16.3962 1.5
      vertex 57.174 16.3108 1.5
    endloop
  endfacet
  facet normal 0 -0 1
    outer loop
      vertex 56.3074 16.3962 1.5
      vertex 59.82 21.3311 1.5
      vertex 52.1 21.925 1.5
    endloop
  endfacet
  facet normal 0 0 1
    outer loop
      vertex 59.82 21.3311 1.5
      vertex 56.6 16.425 1.5
      vertex 56.8926 16.3962 1.5
    endloop
  endfacet
  facet normal 0 0 1
    outer loop
      vertex 59.82 21.3311 1.5
      vertex 56.3074 16.3962 1.5
      vertex 56.6 16.425 1.5
    endloop
  endfacet
  facet normal 0 0 1
    outer loop
      vertex 56.3074 16.3962 1.5
      vertex 52.1 21.925 1.5
      vertex 56.026 16.3108 1.5
    endloop
  endfacet
  facet normal 0 0 1
    outer loop
      vertex 56.026 16.3108 1.5
      vertex 52.1 21.925 1.5
      vertex 55.7666 16.1722 1.5
    endloop
  endfacet
  facet normal 0 0 1
    outer loop
      vertex 55.7666 16.1722 1.5
      vertex 52.1 21.925 1.5
      vertex 55.5393 15.9857 1.5
    endloop
  endfacet
  facet normal 0 0 1
    outer loop
      vertex 55.3528 15.7584 1.5
      vertex 52.1 21.925 1.5
      vertex 55.2142 15.499 1.5
    endloop
  endfacet
  facet normal 0 0 1
    outer loop
      vertex 55.1288 15.2176 1.5
      vertex 52.1 21.925 1.5
      vertex 55.1 14.925 1.5
    endloop
  endfacet
  facet normal 0 0 1
    outer loop
      vertex 55.2142 15.499 1.5
      vertex 52.1 21.925 1.5
      vertex 55.1288 15.2176 1.5
    endloop
  endfacet
  facet normal 0 0 1
    outer loop
      vertex 55.5393 15.9857 1.5
      vertex 52.1 21.925 1.5
      vertex 55.3528 15.7584 1.5
    endloop
  endfacet
  facet normal 0 0 1
    outer loop
      vertex 59.82 21.3311 1.5
      vertex 51.8716 23.073 1.5
      vertex 52.0424 22.5103 1.5
    endloop
  endfacet
  facet normal 0 0 1
    outer loop
      vertex 59.82 21.3311 1.5
      vertex 51.5944 23.5917 1.5
      vertex 51.8716 23.073 1.5
    endloop
  endfacet
  facet normal 0 0 1
    outer loop
      vertex 59.82 33.3689 1.5
      vertex 51.2213 24.0463 1.5
      vertex 51.5944 23.5917 1.5
    endloop
  endfacet
  facet normal 0 0 1
    outer loop
      vertex 59.82 33.3689 1.5
      vertex 50.7667 24.4194 1.5
      vertex 51.2213 24.0463 1.5
    endloop
  endfacet
  facet normal 0 0 1
    outer loop
      vertex 59.82 33.3689 1.5
      vertex 50.2481 24.6966 1.5
      vertex 50.7667 24.4194 1.5
    endloop
  endfacet
  facet normal 0 0 1
    outer loop
      vertex 59.82 33.3689 1.5
      vertex 49.6853 24.8674 1.5
      vertex 50.2481 24.6966 1.5
    endloop
  endfacet
  facet normal 0 0 1
    outer loop
      vertex 59.82 33.3689 1.5
      vertex 49.1 24.925 1.5
      vertex 49.6853 24.8674 1.5
    endloop
  endfacet
  facet normal 0 0 1
    outer loop
      vertex 16.38 33.3689 1.5
      vertex 59.82 33.3689 1.5
      vertex 61.0977 34.4175 1.5
    endloop
  endfacet
  facet normal 0 0 1
    outer loop
      vertex 59.82 33.3689 1.5
      vertex 16.38 33.3689 1.5
      vertex 49.1 24.925 1.5
    endloop
  endfacet
  facet normal 0 0 1
    outer loop
      vertex 15.1023 34.4175 1.5
      vertex 61.0977 34.4175 1.5
      vertex 62.5672 35.203 1.5
    endloop
  endfacet
  facet normal 0 0 1
    outer loop
      vertex 64.1617 35.6867 1.5
      vertex 12.0383 35.6867 1.5
      vertex 62.5672 35.203 1.5
    endloop
  endfacet
  facet normal 0 0 1
    outer loop
      vertex 49.1 24.925 1.5
      vertex 16.38 33.3689 1.5
      vertex 27.1 24.925 1.5
    endloop
  endfacet
  facet normal 0 0 1
    outer loop
      vertex 24.1 21.925 1.5
      vertex 21.1 14.925 1.5
      vertex 24.1 7.925 1.5
    endloop
  endfacet
  facet normal 0 0 1
    outer loop
      vertex 16.38 21.3311 1.5
      vertex 24.1 21.925 1.5
      vertex 24.1576 22.5103 1.5
    endloop
  endfacet
  facet normal 0 0 1
    outer loop
      vertex 16.38 21.3311 1.5
      vertex 24.1576 22.5103 1.5
      vertex 24.3284 23.073 1.5
    endloop
  endfacet
  facet normal 0 0 1
    outer loop
      vertex 24.1 21.925 1.5
      vertex 21.0712 15.2176 1.5
      vertex 21.1 14.925 1.5
    endloop
  endfacet
  facet normal 0 0 1
    outer loop
      vertex 24.1 21.925 1.5
      vertex 20.9858 15.499 1.5
      vertex 21.0712 15.2176 1.5
    endloop
  endfacet
  facet normal 0 0 1
    outer loop
      vertex 24.1 21.925 1.5
      vertex 20.8472 15.7584 1.5
      vertex 20.9858 15.499 1.5
    endloop
  endfacet
  facet normal 0 0 1
    outer loop
      vertex 24.1 21.925 1.5
      vertex 20.6607 15.9857 1.5
      vertex 20.8472 15.7584 1.5
    endloop
  endfacet
  facet normal 0 0 1
    outer loop
      vertex 24.1 21.925 1.5
      vertex 20.4334 16.1722 1.5
      vertex 20.6607 15.9857 1.5
    endloop
  endfacet
  facet normal 0 0 1
    outer loop
      vertex 16.38 21.3311 1.5
      vertex 24.3284 23.073 1.5
      vertex 24.6056 23.5917 1.5
    endloop
  endfacet
  facet normal 0 0 1
    outer loop
      vertex 24.1 21.925 1.5
      vertex 20.174 16.3108 1.5
      vertex 20.4334 16.1722 1.5
    endloop
  endfacet
  facet normal 0 0 1
    outer loop
      vertex 24.1 21.925 1.5
      vertex 19.8926 16.3962 1.5
      vertex 20.174 16.3108 1.5
    endloop
  endfacet
  facet normal 0 0 1
    outer loop
      vertex 24.1 21.925 1.5
      vertex 16.38 21.3311 1.5
      vertex 19.8926 16.3962 1.5
    endloop
  endfacet
  facet normal 0 0 1
    outer loop
      vertex 19.8926 16.3962 1.5
      vertex 16.38 21.3311 1.5
      vertex 19.6 16.425 1.5
    endloop
  endfacet
  facet normal 0 0 1
    outer loop
      vertex 19.6 16.425 1.5
      vertex 16.38 21.3311 1.5
      vertex 19.3074 16.3962 1.5
    endloop
  endfacet
  facet normal 0 0 1
    outer loop
      vertex 19.3074 16.3962 1.5
      vertex 16.38 21.3311 1.5
      vertex 19.026 16.3108 1.5
    endloop
  endfacet
  facet normal 0 0 1
    outer loop
      vertex 19.026 16.3108 1.5
      vertex 16.38 21.3311 1.5
      vertex 18.7666 16.1722 1.5
    endloop
  endfacet
  facet normal -0 0 1
    outer loop
      vertex 15.1023 20.2825 1.5
      vertex 18.7666 16.1722 1.5
      vertex 16.38 21.3311 1.5
    endloop
  endfacet
  facet normal -0 0 1
    outer loop
      vertex 13.6328 19.497 1.5
      vertex 18.3528 15.7584 1.5
      vertex 15.1023 20.2825 1.5
    endloop
  endfacet
  facet normal 0 0 1
    outer loop
      vertex 18.5393 15.9857 1.5
      vertex 15.1023 20.2825 1.5
      vertex 18.3528 15.7584 1.5
    endloop
  endfacet
  facet normal 0 0 1
    outer loop
      vertex 18.7666 16.1722 1.5
      vertex 15.1023 20.2825 1.5
      vertex 18.5393 15.9857 1.5
    endloop
  endfacet
  facet normal 0 0 1
    outer loop
      vertex 16.38 21.3311 1.5
      vertex 24.6056 23.5917 1.5
      vertex 16.38 33.3689 1.5
    endloop
  endfacet
  facet normal 0 0 1
    outer loop
      vertex 24.9787 24.0463 1.5
      vertex 16.38 33.3689 1.5
      vertex 24.6056 23.5917 1.5
    endloop
  endfacet
  facet normal 0 0 1
    outer loop
      vertex 25.4333 24.4194 1.5
      vertex 16.38 33.3689 1.5
      vertex 24.9787 24.0463 1.5
    endloop
  endfacet
  facet normal 0 0 1
    outer loop
      vertex 25.952 24.6966 1.5
      vertex 16.38 33.3689 1.5
      vertex 25.4333 24.4194 1.5
    endloop
  endfacet
  facet normal 0 0 1
    outer loop
      vertex 26.5147 24.8674 1.5
      vertex 16.38 33.3689 1.5
      vertex 25.952 24.6966 1.5
    endloop
  endfacet
  facet normal 0 0 1
    outer loop
      vertex 27.1 24.925 1.5
      vertex 16.38 33.3689 1.5
      vertex 26.5147 24.8674 1.5
    endloop
  endfacet
  facet normal 0 0 1
    outer loop
      vertex 61.0977 34.4175 1.5
      vertex 15.1023 34.4175 1.5
      vertex 16.38 33.3689 1.5
    endloop
  endfacet
  facet normal 0 0 1
    outer loop
      vertex 62.5672 35.203 1.5
      vertex 13.6328 35.203 1.5
      vertex 15.1023 34.4175 1.5
    endloop
  endfacet
  facet normal 0 0 1
    outer loop
      vertex 62.5672 35.203 1.5
      vertex 12.0383 35.6867 1.5
      vertex 13.6328 35.203 1.5
    endloop
  endfacet
  facet normal -0 0 1
    outer loop
      vertex 0 39.7 1.5
      vertex 12.0383 35.6867 1.5
      vertex 76.2 39.7 1.5
    endloop
  endfacet
  facet normal 0 0 1
    outer loop
      vertex 4.38 33.3689 1.5
      vertex 0 39.7 1.5
      vertex 4.38 21.3311 1.5
    endloop
  endfacet
  facet normal 0 0 1
    outer loop
      vertex 5.65765 34.4175 1.5
      vertex 0 39.7 1.5
      vertex 4.38 33.3689 1.5
    endloop
  endfacet
  facet normal 0 0 1
    outer loop
      vertex 7.12719 35.203 1.5
      vertex 0 39.7 1.5
      vertex 5.65765 34.4175 1.5
    endloop
  endfacet
  facet normal 0 0 1
    outer loop
      vertex 8.72173 35.6867 1.5
      vertex 0 39.7 1.5
      vertex 7.12719 35.203 1.5
    endloop
  endfacet
  facet normal 0 0 1
    outer loop
      vertex 10.38 35.85 1.5
      vertex 0 39.7 1.5
      vertex 8.72173 35.6867 1.5
    endloop
  endfacet
  facet normal 0 0 1
    outer loop
      vertex 12.0383 35.6867 1.5
      vertex 0 39.7 1.5
      vertex 10.38 35.85 1.5
    endloop
  endfacet
  facet normal 0 0 1
    outer loop
      vertex 76.2 39.7 1.5
      vertex 71.82 21.3311 1.5
      vertex 76.2 0 1.5
    endloop
  endfacet
  facet normal -0 0 1
    outer loop
      vertex 70.5423 20.2825 1.5
      vertex 76.2 0 1.5
      vertex 71.82 21.3311 1.5
    endloop
  endfacet
  facet normal -0 0 1
    outer loop
      vertex 69.0728 19.497 1.5
      vertex 76.2 0 1.5
      vertex 70.5423 20.2825 1.5
    endloop
  endfacet
  facet normal -0 0 1
    outer loop
      vertex 67.4783 19.0133 1.5
      vertex 76.2 0 1.5
      vertex 69.0728 19.497 1.5
    endloop
  endfacet
  facet normal -0 0 1
    outer loop
      vertex 65.82 18.85 1.5
      vertex 76.2 0 1.5
      vertex 67.4783 19.0133 1.5
    endloop
  endfacet
  facet normal 0 0 1
    outer loop
      vertex 57.9858 14.351 1.5
      vertex 65.82 18.85 1.5
      vertex 64.1617 19.0133 1.5
    endloop
  endfacet
  facet normal 0 0 1
    outer loop
      vertex 58.1 14.925 1.5
      vertex 64.1617 19.0133 1.5
      vertex 62.5672 19.497 1.5
    endloop
  endfacet
  facet normal 0 0 1
    outer loop
      vertex 58.1 14.925 1.5
      vertex 62.5672 19.497 1.5
      vertex 61.0977 20.2825 1.5
    endloop
  endfacet
  facet normal 0 0 1
    outer loop
      vertex 58.1 14.925 1.5
      vertex 61.0977 20.2825 1.5
      vertex 59.82 21.3311 1.5
    endloop
  endfacet
  facet normal 0 0 1
    outer loop
      vertex 64.1617 19.0133 1.5
      vertex 58.1 14.925 1.5
      vertex 58.0712 14.6324 1.5
    endloop
  endfacet
  facet normal 0 0 1
    outer loop
      vertex 64.1617 19.0133 1.5
      vertex 58.0712 14.6324 1.5
      vertex 57.9858 14.351 1.5
    endloop
  endfacet
  facet normal 0 0 1
    outer loop
      vertex 65.82 18.85 1.5
      vertex 57.9858 14.351 1.5
      vertex 57.8472 14.0916 1.5
    endloop
  endfacet
  facet normal 0 0 1
    outer loop
      vertex 65.82 18.85 1.5
      vertex 57.8472 14.0916 1.5
      vertex 76.2 0 1.5
    endloop
  endfacet
  facet normal -0 0 1
    outer loop
      vertex 57.6607 13.8643 1.5
      vertex 76.2 0 1.5
      vertex 57.8472 14.0916 1.5
    endloop
  endfacet
  facet normal -0 0 1
    outer loop
      vertex 57.4334 13.6778 1.5
      vertex 76.2 0 1.5
      vertex 57.6607 13.8643 1.5
    endloop
  endfacet
  facet normal 0 0 1
    outer loop
      vertex 51.8716 6.77695 1.5
      vertex 57.4334 13.6778 1.5
      vertex 57.174 13.5392 1.5
    endloop
  endfacet
  facet normal 0 0 1
    outer loop
      vertex 52.0424 7.33973 1.5
      vertex 57.174 13.5392 1.5
      vertex 56.8926 13.4538 1.5
    endloop
  endfacet
  facet normal 0 0 1
    outer loop
      vertex 52.1 7.925 1.5
      vertex 56.8926 13.4538 1.5
      vertex 56.6 13.425 1.5
    endloop
  endfacet
  facet normal 0 0 1
    outer loop
      vertex 52.1 7.925 1.5
      vertex 56.6 13.425 1.5
      vertex 56.3074 13.4538 1.5
    endloop
  endfacet
  facet normal 0 0 1
    outer loop
      vertex 52.1 7.925 1.5
      vertex 56.3074 13.4538 1.5
      vertex 56.026 13.5392 1.5
    endloop
  endfacet
  facet normal 0 0 1
    outer loop
      vertex 52.1 7.925 1.5
      vertex 56.026 13.5392 1.5
      vertex 55.7666 13.6778 1.5
    endloop
  endfacet
  facet normal 0 0 1
    outer loop
      vertex 52.1 7.925 1.5
      vertex 55.1 14.925 1.5
      vertex 52.1 21.925 1.5
    endloop
  endfacet
  facet normal 0 0 1
    outer loop
      vertex 55.1 14.925 1.5
      vertex 52.1 7.925 1.5
      vertex 55.1288 14.6324 1.5
    endloop
  endfacet
  facet normal 0 0 1
    outer loop
      vertex 55.1288 14.6324 1.5
      vertex 52.1 7.925 1.5
      vertex 55.2142 14.351 1.5
    endloop
  endfacet
  facet normal 0 0 1
    outer loop
      vertex 52.1 7.925 1.5
      vertex 55.3528 14.0916 1.5
      vertex 55.2142 14.351 1.5
    endloop
  endfacet
  facet normal 0 0 1
    outer loop
      vertex 52.1 7.925 1.5
      vertex 55.5393 13.8643 1.5
      vertex 55.3528 14.0916 1.5
    endloop
  endfacet
  facet normal 0 0 1
    outer loop
      vertex 52.1 7.925 1.5
      vertex 55.7666 13.6778 1.5
      vertex 55.5393 13.8643 1.5
    endloop
  endfacet
  facet normal 0 0 1
    outer loop
      vertex 56.8926 13.4538 1.5
      vertex 52.1 7.925 1.5
      vertex 52.0424 7.33973 1.5
    endloop
  endfacet
  facet normal 0 0 1
    outer loop
      vertex 57.174 13.5392 1.5
      vertex 52.0424 7.33973 1.5
      vertex 51.8716 6.77695 1.5
    endloop
  endfacet
  facet normal 0 0 1
    outer loop
      vertex 57.4334 13.6778 1.5
      vertex 51.8716 6.77695 1.5
      vertex 76.2 0 1.5
    endloop
  endfacet
  facet normal -0 0 1
    outer loop
      vertex 51.5944 6.25829 1.5
      vertex 76.2 0 1.5
      vertex 51.8716 6.77695 1.5
    endloop
  endfacet
  facet normal -0 0 1
    outer loop
      vertex 51.2213 5.80368 1.5
      vertex 76.2 0 1.5
      vertex 51.5944 6.25829 1.5
    endloop
  endfacet
  facet normal -0 0 1
    outer loop
      vertex 50.7667 5.43059 1.5
      vertex 76.2 0 1.5
      vertex 51.2213 5.80368 1.5
    endloop
  endfacet
  facet normal -0 0 1
    outer loop
      vertex 50.2481 5.15336 1.5
      vertex 76.2 0 1.5
      vertex 50.7667 5.43059 1.5
    endloop
  endfacet
  facet normal -0 0 1
    outer loop
      vertex 49.6853 4.98264 1.5
      vertex 76.2 0 1.5
      vertex 50.2481 5.15336 1.5
    endloop
  endfacet
  facet normal -0 0 1
    outer loop
      vertex 49.1 4.925 1.5
      vertex 76.2 0 1.5
      vertex 49.6853 4.98264 1.5
    endloop
  endfacet
  facet normal -0 0 1
    outer loop
      vertex 27.1 4.925 1.5
      vertex 76.2 0 1.5
      vertex 49.1 4.925 1.5
    endloop
  endfacet
  facet normal 0 0 1
    outer loop
      vertex 0 0 1.5
      vertex 27.1 4.925 1.5
      vertex 26.5147 4.98264 1.5
    endloop
  endfacet
  facet normal -0 0 1
    outer loop
      vertex 21.0712 14.6324 1.5
      vertex 24.1 7.925 1.5
      vertex 21.1 14.925 1.5
    endloop
  endfacet
  facet normal -0 0 1
    outer loop
      vertex 20.9858 14.351 1.5
      vertex 24.1 7.925 1.5
      vertex 21.0712 14.6324 1.5
    endloop
  endfacet
  facet normal -0 0 1
    outer loop
      vertex 20.8472 14.0916 1.5
      vertex 24.1 7.925 1.5
      vertex 20.9858 14.351 1.5
    endloop
  endfacet
  facet normal -0 0 1
    outer loop
      vertex 20.6607 13.8643 1.5
      vertex 24.1 7.925 1.5
      vertex 20.8472 14.0916 1.5
    endloop
  endfacet
  facet normal -0 0 1
    outer loop
      vertex 20.4334 13.6778 1.5
      vertex 24.1 7.925 1.5
      vertex 20.6607 13.8643 1.5
    endloop
  endfacet
  facet normal -0 0 1
    outer loop
      vertex 20.174 13.5392 1.5
      vertex 24.1 7.925 1.5
      vertex 20.4334 13.6778 1.5
    endloop
  endfacet
  facet normal -0 0 1
    outer loop
      vertex 19.8926 13.4538 1.5
      vertex 24.1 7.925 1.5
      vertex 20.174 13.5392 1.5
    endloop
  endfacet
  facet normal -0 0 1
    outer loop
      vertex 19.6 13.425 1.5
      vertex 24.1 7.925 1.5
      vertex 19.8926 13.4538 1.5
    endloop
  endfacet
  facet normal 0 0 1
    outer loop
      vertex 19.3074 13.4538 1.5
      vertex 24.1 7.925 1.5
      vertex 19.6 13.425 1.5
    endloop
  endfacet
  facet normal 0 0 1
    outer loop
      vertex 24.1 7.925 1.5
      vertex 19.3074 13.4538 1.5
      vertex 24.1576 7.33973 1.5
    endloop
  endfacet
  facet normal 0 0 1
    outer loop
      vertex 19.026 13.5392 1.5
      vertex 24.1576 7.33973 1.5
      vertex 19.3074 13.4538 1.5
    endloop
  endfacet
  facet normal 0 0 1
    outer loop
      vertex 24.1576 7.33973 1.5
      vertex 19.026 13.5392 1.5
      vertex 24.3284 6.77695 1.5
    endloop
  endfacet
  facet normal 0 0 1
    outer loop
      vertex 18.7666 13.6778 1.5
      vertex 24.3284 6.77695 1.5
      vertex 19.026 13.5392 1.5
    endloop
  endfacet
  facet normal 0 0 1
    outer loop
      vertex 0 0 1.5
      vertex 24.3284 6.77695 1.5
      vertex 18.7666 13.6778 1.5
    endloop
  endfacet
  facet normal 0 0 1
    outer loop
      vertex 0 0 1.5
      vertex 18.7666 13.6778 1.5
      vertex 18.5393 13.8643 1.5
    endloop
  endfacet
  facet normal 0 0 1
    outer loop
      vertex 0 0 1.5
      vertex 18.5393 13.8643 1.5
      vertex 18.3528 14.0916 1.5
    endloop
  endfacet
  facet normal 0 0 1
    outer loop
      vertex 18.3528 15.7584 1.5
      vertex 13.6328 19.497 1.5
      vertex 18.2142 15.499 1.5
    endloop
  endfacet
  facet normal 0 0 1
    outer loop
      vertex 18.2142 15.499 1.5
      vertex 13.6328 19.497 1.5
      vertex 18.1288 15.2176 1.5
    endloop
  endfacet
  facet normal 0 0 1
    outer loop
      vertex 18.1288 15.2176 1.5
      vertex 13.6328 19.497 1.5
      vertex 18.1 14.925 1.5
    endloop
  endfacet
  facet normal -0 0 1
    outer loop
      vertex 12.0383 19.0133 1.5
      vertex 18.1 14.925 1.5
      vertex 13.6328 19.497 1.5
    endloop
  endfacet
  facet normal 0 0 1
    outer loop
      vertex 18.1 14.925 1.5
      vertex 12.0383 19.0133 1.5
      vertex 18.1288 14.6324 1.5
    endloop
  endfacet
  facet normal 0 0 1
    outer loop
      vertex 18.1288 14.6324 1.5
      vertex 12.0383 19.0133 1.5
      vertex 18.2142 14.351 1.5
    endloop
  endfacet
  facet normal -0 0 1
    outer loop
      vertex 10.38 18.85 1.5
      vertex 18.2142 14.351 1.5
      vertex 12.0383 19.0133 1.5
    endloop
  endfacet
  facet normal 0 0 1
    outer loop
      vertex 18.2142 14.351 1.5
      vertex 10.38 18.85 1.5
      vertex 18.3528 14.0916 1.5
    endloop
  endfacet
  facet normal 0 0 1
    outer loop
      vertex 0 0 1.5
      vertex 18.3528 14.0916 1.5
      vertex 10.38 18.85 1.5
    endloop
  endfacet
  facet normal 0 0 1
    outer loop
      vertex 24.3284 6.77695 1.5
      vertex 0 0 1.5
      vertex 24.6056 6.25829 1.5
    endloop
  endfacet
  facet normal 0 0 1
    outer loop
      vertex 0 0 1.5
      vertex 10.38 18.85 1.5
      vertex 8.72173 19.0133 1.5
    endloop
  endfacet
  facet normal 0 0 1
    outer loop
      vertex 24.6056 6.25829 1.5
      vertex 0 0 1.5
      vertex 24.9787 5.80368 1.5
    endloop
  endfacet
  facet normal 0 0 1
    outer loop
      vertex 0 0 1.5
      vertex 8.72173 19.0133 1.5
      vertex 7.12719 19.497 1.5
    endloop
  endfacet
  facet normal 0 0 1
    outer loop
      vertex 0 0 1.5
      vertex 7.12719 19.497 1.5
      vertex 5.65765 20.2825 1.5
    endloop
  endfacet
  facet normal 0 0 1
    outer loop
      vertex 27.1 4.925 1.5
      vertex 0 0 1.5
      vertex 76.2 0 1.5
    endloop
  endfacet
  facet normal 0 0 1
    outer loop
      vertex 25.952 5.15336 1.5
      vertex 0 0 1.5
      vertex 26.5147 4.98264 1.5
    endloop
  endfacet
  facet normal 0 0 1
    outer loop
      vertex 25.4333 5.43059 1.5
      vertex 0 0 1.5
      vertex 25.952 5.15336 1.5
    endloop
  endfacet
  facet normal 0 0 1
    outer loop
      vertex 24.9787 5.80368 1.5
      vertex 0 0 1.5
      vertex 25.4333 5.43059 1.5
    endloop
  endfacet
  facet normal 0 0 1
    outer loop
      vertex 4.38 21.3311 1.5
      vertex 0 0 1.5
      vertex 5.65765 20.2825 1.5
    endloop
  endfacet
  facet normal 0 0 1
    outer loop
      vertex 0 0 1.5
      vertex 4.38 21.3311 1.5
      vertex 0 39.7 1.5
    endloop
  endfacet
  facet normal 1 -0 0
    outer loop
      vertex 76.2 0 1.5
      vertex 76.2 39.7 0
      vertex 76.2 39.7 1.5
    endloop
  endfacet
  facet normal 1 0 0
    outer loop
      vertex 76.2 39.7 0
      vertex 76.2 0 1.5
      vertex 76.2 0 0
    endloop
  endfacet
  facet normal 0 1 -0
    outer loop
      vertex 76.2 39.7 0
      vertex 0 39.7 1.5
      vertex 76.2 39.7 1.5
    endloop
  endfacet
  facet normal 0 1 0
    outer loop
      vertex 0 39.7 1.5
      vertex 76.2 39.7 0
      vertex 0 39.7 0
    endloop
  endfacet
  facet normal 0 0 -1
    outer loop
      vertex 76.2 0 0
      vertex 71.82 21.3311 0
      vertex 76.2 39.7 0
    endloop
  endfacet
  facet normal 0 0 -1
    outer loop
      vertex 76.2 0 0
      vertex 70.5423 20.2825 0
      vertex 71.82 21.3311 0
    endloop
  endfacet
  facet normal 0 0 -1
    outer loop
      vertex 76.2 0 0
      vertex 69.0728 19.497 0
      vertex 70.5423 20.2825 0
    endloop
  endfacet
  facet normal 0 0 -1
    outer loop
      vertex 76.2 0 0
      vertex 67.4783 19.0133 0
      vertex 69.0728 19.497 0
    endloop
  endfacet
  facet normal 0 0 -1
    outer loop
      vertex 76.2 0 0
      vertex 65.82 18.85 0
      vertex 67.4783 19.0133 0
    endloop
  endfacet
  facet normal 0 0 -1
    outer loop
      vertex 57.8472 14.0916 0
      vertex 65.82 18.85 0
      vertex 76.2 0 0
    endloop
  endfacet
  facet normal 0 -0 -1
    outer loop
      vertex 57.9858 14.351 0
      vertex 65.82 18.85 0
      vertex 57.8472 14.0916 0
    endloop
  endfacet
  facet normal 0 -0 -1
    outer loop
      vertex 58.0712 14.6324 0
      vertex 64.1617 19.0133 0
      vertex 57.9858 14.351 0
    endloop
  endfacet
  facet normal -0 0 -1
    outer loop
      vertex 64.1617 19.0133 0
      vertex 58.1 14.925 0
      vertex 62.5672 19.497 0
    endloop
  endfacet
  facet normal 0 0 -1
    outer loop
      vertex 57.8472 15.7584 0
      vertex 62.5672 19.497 0
      vertex 57.9858 15.499 0
    endloop
  endfacet
  facet normal 0 0 -1
    outer loop
      vertex 57.9858 15.499 0
      vertex 62.5672 19.497 0
      vertex 58.0712 15.2176 0
    endloop
  endfacet
  facet normal 0 0 -1
    outer loop
      vertex 58.0712 15.2176 0
      vertex 62.5672 19.497 0
      vertex 58.1 14.925 0
    endloop
  endfacet
  facet normal 0 -0 -1
    outer loop
      vertex 58.1 14.925 0
      vertex 64.1617 19.0133 0
      vertex 58.0712 14.6324 0
    endloop
  endfacet
  facet normal -0 0 -1
    outer loop
      vertex 65.82 18.85 0
      vertex 57.9858 14.351 0
      vertex 64.1617 19.0133 0
    endloop
  endfacet
  facet normal 0 0 -1
    outer loop
      vertex 76.2 0 0
      vertex 57.6607 13.8643 0
      vertex 57.8472 14.0916 0
    endloop
  endfacet
  facet normal 0 0 -1
    outer loop
      vertex 76.2 0 0
      vertex 57.4334 13.6778 0
      vertex 57.6607 13.8643 0
    endloop
  endfacet
  facet normal 0 0 -1
    outer loop
      vertex 51.8716 6.77695 0
      vertex 57.4334 13.6778 0
      vertex 76.2 0 0
    endloop
  endfacet
  facet normal 0 0 -1
    outer loop
      vertex 57.4334 13.6778 0
      vertex 51.8716 6.77695 0
      vertex 57.174 13.5392 0
    endloop
  endfacet
  facet normal 0 -0 -1
    outer loop
      vertex 52.0424 7.33973 0
      vertex 57.174 13.5392 0
      vertex 51.8716 6.77695 0
    endloop
  endfacet
  facet normal 0 0 -1
    outer loop
      vertex 57.174 13.5392 0
      vertex 52.0424 7.33973 0
      vertex 56.8926 13.4538 0
    endloop
  endfacet
  facet normal 0 0 -1
    outer loop
      vertex 56.8926 13.4538 0
      vertex 52.1 7.925 0
      vertex 56.6 13.425 0
    endloop
  endfacet
  facet normal -0 0 -1
    outer loop
      vertex 56.6 13.425 0
      vertex 52.1 7.925 0
      vertex 56.3074 13.4538 0
    endloop
  endfacet
  facet normal -0 0 -1
    outer loop
      vertex 55.1288 14.6324 0
      vertex 52.1 7.925 0
      vertex 55.1 14.925 0
    endloop
  endfacet
  facet normal -0 0 -1
    outer loop
      vertex 55.2142 14.351 0
      vertex 52.1 7.925 0
      vertex 55.1288 14.6324 0
    endloop
  endfacet
  facet normal -0 0 -1
    outer loop
      vertex 55.3528 14.0916 0
      vertex 52.1 7.925 0
      vertex 55.2142 14.351 0
    endloop
  endfacet
  facet normal -0 0 -1
    outer loop
      vertex 55.5393 13.8643 0
      vertex 52.1 7.925 0
      vertex 55.3528 14.0916 0
    endloop
  endfacet
  facet normal -0 0 -1
    outer loop
      vertex 55.7666 13.6778 0
      vertex 52.1 7.925 0
      vertex 55.5393 13.8643 0
    endloop
  endfacet
  facet normal -0 0 -1
    outer loop
      vertex 56.3074 13.4538 0
      vertex 52.1 7.925 0
      vertex 56.026 13.5392 0
    endloop
  endfacet
  facet normal -0 0 -1
    outer loop
      vertex 56.026 13.5392 0
      vertex 52.1 7.925 0
      vertex 55.7666 13.6778 0
    endloop
  endfacet
  facet normal 0 -0 -1
    outer loop
      vertex 52.1 7.925 0
      vertex 56.8926 13.4538 0
      vertex 52.0424 7.33973 0
    endloop
  endfacet
  facet normal 0 0 -1
    outer loop
      vertex 76.2 0 0
      vertex 51.5944 6.25829 0
      vertex 51.8716 6.77695 0
    endloop
  endfacet
  facet normal 0 0 -1
    outer loop
      vertex 76.2 0 0
      vertex 51.2213 5.80368 0
      vertex 51.5944 6.25829 0
    endloop
  endfacet
  facet normal 0 0 -1
    outer loop
      vertex 76.2 0 0
      vertex 50.7667 5.43059 0
      vertex 51.2213 5.80368 0
    endloop
  endfacet
  facet normal 0 0 -1
    outer loop
      vertex 76.2 0 0
      vertex 50.2481 5.15336 0
      vertex 50.7667 5.43059 0
    endloop
  endfacet
  facet normal 0 0 -1
    outer loop
      vertex 76.2 0 0
      vertex 49.6853 4.98264 0
      vertex 50.2481 5.15336 0
    endloop
  endfacet
  facet normal 0 0 -1
    outer loop
      vertex 76.2 0 0
      vertex 49.1 4.925 0
      vertex 49.6853 4.98264 0
    endloop
  endfacet
  facet normal 0 0 -1
    outer loop
      vertex 76.2 0 0
      vertex 27.1 4.925 0
      vertex 49.1 4.925 0
    endloop
  endfacet
  facet normal 0 0 -1
    outer loop
      vertex 0 0 0
      vertex 27.1 4.925 0
      vertex 76.2 0 0
    endloop
  endfacet
  facet normal 0 0 -1
    outer loop
      vertex 24.1 7.925 0
      vertex 21.1 14.925 0
      vertex 24.1 21.925 0
    endloop
  endfacet
  facet normal 0 0 -1
    outer loop
      vertex 19.3074 13.4538 0
      vertex 24.1 7.925 0
      vertex 24.1576 7.33973 0
    endloop
  endfacet
  facet normal 0 0 -1
    outer loop
      vertex 19.026 13.5392 0
      vertex 24.1576 7.33973 0
      vertex 24.3284 6.77695 0
    endloop
  endfacet
  facet normal 0 0 -1
    outer loop
      vertex 24.1 7.925 0
      vertex 21.0712 14.6324 0
      vertex 21.1 14.925 0
    endloop
  endfacet
  facet normal 0 0 -1
    outer loop
      vertex 24.1 7.925 0
      vertex 20.9858 14.351 0
      vertex 21.0712 14.6324 0
    endloop
  endfacet
  facet normal 0 0 -1
    outer loop
      vertex 24.1 7.925 0
      vertex 20.8472 14.0916 0
      vertex 20.9858 14.351 0
    endloop
  endfacet
  facet normal 0 0 -1
    outer loop
      vertex 24.1 7.925 0
      vertex 20.6607 13.8643 0
      vertex 20.8472 14.0916 0
    endloop
  endfacet
  facet normal 0 0 -1
    outer loop
      vertex 24.1 7.925 0
      vertex 20.4334 13.6778 0
      vertex 20.6607 13.8643 0
    endloop
  endfacet
  facet normal 0 0 -1
    outer loop
      vertex 0 0 0
      vertex 24.3284 6.77695 0
      vertex 24.6056 6.25829 0
    endloop
  endfacet
  facet normal 0 0 -1
    outer loop
      vertex 24.1 7.925 0
      vertex 20.174 13.5392 0
      vertex 20.4334 13.6778 0
    endloop
  endfacet
  facet normal 0 0 -1
    outer loop
      vertex 24.1 7.925 0
      vertex 19.8926 13.4538 0
      vertex 20.174 13.5392 0
    endloop
  endfacet
  facet normal 0 0 -1
    outer loop
      vertex 24.1 7.925 0
      vertex 19.6 13.425 0
      vertex 19.8926 13.4538 0
    endloop
  endfacet
  facet normal 0 0 -1
    outer loop
      vertex 24.1 7.925 0
      vertex 19.3074 13.4538 0
      vertex 19.6 13.425 0
    endloop
  endfacet
  facet normal 0 0 -1
    outer loop
      vertex 24.1576 7.33973 0
      vertex 19.026 13.5392 0
      vertex 19.3074 13.4538 0
    endloop
  endfacet
  facet normal 0 0 -1
    outer loop
      vertex 24.3284 6.77695 0
      vertex 18.7666 13.6778 0
      vertex 19.026 13.5392 0
    endloop
  endfacet
  facet normal -0 0 -1
    outer loop
      vertex 24.3284 6.77695 0
      vertex 0 0 0
      vertex 18.7666 13.6778 0
    endloop
  endfacet
  facet normal -0 0 -1
    outer loop
      vertex 18.7666 13.6778 0
      vertex 0 0 0
      vertex 18.5393 13.8643 0
    endloop
  endfacet
  facet normal 0 0 -1
    outer loop
      vertex 12.0383 19.0133 0
      vertex 18.1 14.925 0
      vertex 18.1288 14.6324 0
    endloop
  endfacet
  facet normal 0 0 -1
    outer loop
      vertex 18.1 14.925 0
      vertex 15.1023 20.2825 0
      vertex 16.38 21.3311 0
    endloop
  endfacet
  facet normal 0 0 -1
    outer loop
      vertex 12.0383 19.0133 0
      vertex 18.1288 14.6324 0
      vertex 18.2142 14.351 0
    endloop
  endfacet
  facet normal 0 0 -1
    outer loop
      vertex 18.1 14.925 0
      vertex 13.6328 19.497 0
      vertex 15.1023 20.2825 0
    endloop
  endfacet
  facet normal 0 0 -1
    outer loop
      vertex 10.38 18.85 0
      vertex 18.2142 14.351 0
      vertex 18.3528 14.0916 0
    endloop
  endfacet
  facet normal -0 0 -1
    outer loop
      vertex 18.5393 13.8643 0
      vertex 0 0 0
      vertex 18.3528 14.0916 0
    endloop
  endfacet
  facet normal 0 0 -1
    outer loop
      vertex 0 0 0
      vertex 24.6056 6.25829 0
      vertex 24.9787 5.80368 0
    endloop
  endfacet
  facet normal 0 0 -1
    outer loop
      vertex 18.1 14.925 0
      vertex 12.0383 19.0133 0
      vertex 13.6328 19.497 0
    endloop
  endfacet
  facet normal 0 0 -1
    outer loop
      vertex 18.2142 14.351 0
      vertex 10.38 18.85 0
      vertex 12.0383 19.0133 0
    endloop
  endfacet
  facet normal -0 0 -1
    outer loop
      vertex 18.3528 14.0916 0
      vertex 0 0 0
      vertex 10.38 18.85 0
    endloop
  endfacet
  facet normal 0 0 -1
    outer loop
      vertex 0 0 0
      vertex 24.9787 5.80368 0
      vertex 25.4333 5.43059 0
    endloop
  endfacet
  facet normal -0 0 -1
    outer loop
      vertex 10.38 18.85 0
      vertex 0 0 0
      vertex 8.72173 19.0133 0
    endloop
  endfacet
  facet normal -0 0 -1
    outer loop
      vertex 8.72173 19.0133 0
      vertex 0 0 0
      vertex 7.12719 19.497 0
    endloop
  endfacet
  facet normal 0 0 -1
    outer loop
      vertex 0 39.7 0
      vertex 4.38 21.3311 0
      vertex 0 0 0
    endloop
  endfacet
  facet normal -0 0 -1
    outer loop
      vertex 5.65765 20.2825 0
      vertex 0 0 0
      vertex 4.38 21.3311 0
    endloop
  endfacet
  facet normal -0 0 -1
    outer loop
      vertex 7.12719 19.497 0
      vertex 0 0 0
      vertex 5.65765 20.2825 0
    endloop
  endfacet
  facet normal -0 0 -1
    outer loop
      vertex 25.952 5.15336 0
      vertex 0 0 0
      vertex 25.4333 5.43059 0
    endloop
  endfacet
  facet normal -0 0 -1
    outer loop
      vertex 26.5147 4.98264 0
      vertex 0 0 0
      vertex 25.952 5.15336 0
    endloop
  endfacet
  facet normal -0 0 -1
    outer loop
      vertex 27.1 4.925 0
      vertex 0 0 0
      vertex 26.5147 4.98264 0
    endloop
  endfacet
  facet normal 0 0 -1
    outer loop
      vertex 71.82 33.3689 0
      vertex 76.2 39.7 0
      vertex 71.82 21.3311 0
    endloop
  endfacet
  facet normal 0 0 -1
    outer loop
      vertex 70.5423 34.4175 0
      vertex 76.2 39.7 0
      vertex 71.82 33.3689 0
    endloop
  endfacet
  facet normal 0 0 -1
    outer loop
      vertex 69.0728 35.203 0
      vertex 76.2 39.7 0
      vertex 70.5423 34.4175 0
    endloop
  endfacet
  facet normal 0 0 -1
    outer loop
      vertex 67.4783 35.6867 0
      vertex 76.2 39.7 0
      vertex 69.0728 35.203 0
    endloop
  endfacet
  facet normal 0 0 -1
    outer loop
      vertex 65.82 35.85 0
      vertex 76.2 39.7 0
      vertex 67.4783 35.6867 0
    endloop
  endfacet
  facet normal 0 0 -1
    outer loop
      vertex 64.1617 35.6867 0
      vertex 76.2 39.7 0
      vertex 65.82 35.85 0
    endloop
  endfacet
  facet normal 0 0 -1
    outer loop
      vertex 12.0383 35.6867 0
      vertex 64.1617 35.6867 0
      vertex 62.5672 35.203 0
    endloop
  endfacet
  facet normal -0 0 -1
    outer loop
      vertex 62.5672 19.497 0
      vertex 57.8472 15.7584 0
      vertex 61.0977 20.2825 0
    endloop
  endfacet
  facet normal 0 0 -1
    outer loop
      vertex 57.6607 15.9857 0
      vertex 61.0977 20.2825 0
      vertex 57.8472 15.7584 0
    endloop
  endfacet
  facet normal 0 0 -1
    outer loop
      vertex 57.4334 16.1722 0
      vertex 61.0977 20.2825 0
      vertex 57.6607 15.9857 0
    endloop
  endfacet
  facet normal -0 0 -1
    outer loop
      vertex 61.0977 20.2825 0
      vertex 57.4334 16.1722 0
      vertex 59.82 21.3311 0
    endloop
  endfacet
  facet normal 0 0 -1
    outer loop
      vertex 57.174 16.3108 0
      vertex 59.82 21.3311 0
      vertex 57.4334 16.1722 0
    endloop
  endfacet
  facet normal 0 0 -1
    outer loop
      vertex 56.8926 16.3962 0
      vertex 59.82 21.3311 0
      vertex 57.174 16.3108 0
    endloop
  endfacet
  facet normal 0 0 -1
    outer loop
      vertex 56.6 16.425 0
      vertex 59.82 21.3311 0
      vertex 56.8926 16.3962 0
    endloop
  endfacet
  facet normal 0 0 -1
    outer loop
      vertex 56.3074 16.3962 0
      vertex 59.82 21.3311 0
      vertex 56.6 16.425 0
    endloop
  endfacet
  facet normal -0 0 -1
    outer loop
      vertex 59.82 21.3311 0
      vertex 56.3074 16.3962 0
      vertex 52.1 21.925 0
    endloop
  endfacet
  facet normal 0 0 -1
    outer loop
      vertex 52.1 21.925 0
      vertex 56.3074 16.3962 0
      vertex 56.026 16.3108 0
    endloop
  endfacet
  facet normal 0 0 -1
    outer loop
      vertex 52.1 21.925 0
      vertex 56.026 16.3108 0
      vertex 55.7666 16.1722 0
    endloop
  endfacet
  facet normal 0 0 -1
    outer loop
      vertex 52.1 21.925 0
      vertex 55.7666 16.1722 0
      vertex 55.5393 15.9857 0
    endloop
  endfacet
  facet normal 0 0 -1
    outer loop
      vertex 52.1 21.925 0
      vertex 55.5393 15.9857 0
      vertex 55.3528 15.7584 0
    endloop
  endfacet
  facet normal 0 0 -1
    outer loop
      vertex 52.1 21.925 0
      vertex 55.3528 15.7584 0
      vertex 55.2142 15.499 0
    endloop
  endfacet
  facet normal 0 0 -1
    outer loop
      vertex 52.1 21.925 0
      vertex 55.2142 15.499 0
      vertex 55.1288 15.2176 0
    endloop
  endfacet
  facet normal 0 0 -1
    outer loop
      vertex 52.1 21.925 0
      vertex 55.1 14.925 0
      vertex 52.1 7.925 0
    endloop
  endfacet
  facet normal 0 0 -1
    outer loop
      vertex 55.1 14.925 0
      vertex 52.1 21.925 0
      vertex 55.1288 15.2176 0
    endloop
  endfacet
  facet normal 0 0 -1
    outer loop
      vertex 59.82 21.3311 0
      vertex 52.1 21.925 0
      vertex 52.0424 22.5103 0
    endloop
  endfacet
  facet normal 0 0 -1
    outer loop
      vertex 51.8716 23.073 0
      vertex 59.82 21.3311 0
      vertex 52.0424 22.5103 0
    endloop
  endfacet
  facet normal 0 0 -1
    outer loop
      vertex 51.5944 23.5917 0
      vertex 59.82 21.3311 0
      vertex 51.8716 23.073 0
    endloop
  endfacet
  facet normal 0 0 -1
    outer loop
      vertex 59.82 21.3311 0
      vertex 51.5944 23.5917 0
      vertex 59.82 33.3689 0
    endloop
  endfacet
  facet normal 0 0 -1
    outer loop
      vertex 51.2213 24.0463 0
      vertex 59.82 33.3689 0
      vertex 51.5944 23.5917 0
    endloop
  endfacet
  facet normal 0 0 -1
    outer loop
      vertex 50.7667 24.4194 0
      vertex 59.82 33.3689 0
      vertex 51.2213 24.0463 0
    endloop
  endfacet
  facet normal 0 0 -1
    outer loop
      vertex 50.2481 24.6966 0
      vertex 59.82 33.3689 0
      vertex 50.7667 24.4194 0
    endloop
  endfacet
  facet normal 0 0 -1
    outer loop
      vertex 49.6853 24.8674 0
      vertex 59.82 33.3689 0
      vertex 50.2481 24.6966 0
    endloop
  endfacet
  facet normal 0 0 -1
    outer loop
      vertex 49.1 24.925 0
      vertex 59.82 33.3689 0
      vertex 49.6853 24.8674 0
    endloop
  endfacet
  facet normal 0 0 -1
    outer loop
      vertex 16.38 33.3689 0
      vertex 59.82 33.3689 0
      vertex 49.1 24.925 0
    endloop
  endfacet
  facet normal 0 0 -1
    outer loop
      vertex 16.38 33.3689 0
      vertex 49.1 24.925 0
      vertex 27.1 24.925 0
    endloop
  endfacet
  facet normal 0 0 -1
    outer loop
      vertex 59.82 33.3689 0
      vertex 16.38 33.3689 0
      vertex 61.0977 34.4175 0
    endloop
  endfacet
  facet normal 0 0 -1
    outer loop
      vertex 15.1023 34.4175 0
      vertex 61.0977 34.4175 0
      vertex 16.38 33.3689 0
    endloop
  endfacet
  facet normal 0 0 -1
    outer loop
      vertex 16.38 33.3689 0
      vertex 27.1 24.925 0
      vertex 26.5147 24.8674 0
    endloop
  endfacet
  facet normal 0 0 -1
    outer loop
      vertex 21.0712 15.2176 0
      vertex 24.1 21.925 0
      vertex 21.1 14.925 0
    endloop
  endfacet
  facet normal 0 0 -1
    outer loop
      vertex 20.9858 15.499 0
      vertex 24.1 21.925 0
      vertex 21.0712 15.2176 0
    endloop
  endfacet
  facet normal 0 0 -1
    outer loop
      vertex 20.8472 15.7584 0
      vertex 24.1 21.925 0
      vertex 20.9858 15.499 0
    endloop
  endfacet
  facet normal 0 0 -1
    outer loop
      vertex 20.6607 15.9857 0
      vertex 24.1 21.925 0
      vertex 20.8472 15.7584 0
    endloop
  endfacet
  facet normal 0 0 -1
    outer loop
      vertex 20.4334 16.1722 0
      vertex 24.1 21.925 0
      vertex 20.6607 15.9857 0
    endloop
  endfacet
  facet normal 0 0 -1
    outer loop
      vertex 20.174 16.3108 0
      vertex 24.1 21.925 0
      vertex 20.4334 16.1722 0
    endloop
  endfacet
  facet normal 0 0 -1
    outer loop
      vertex 19.8926 16.3962 0
      vertex 24.1 21.925 0
      vertex 20.174 16.3108 0
    endloop
  endfacet
  facet normal 0 0 -1
    outer loop
      vertex 16.38 21.3311 0
      vertex 24.1 21.925 0
      vertex 19.8926 16.3962 0
    endloop
  endfacet
  facet normal -0 0 -1
    outer loop
      vertex 24.1 21.925 0
      vertex 16.38 21.3311 0
      vertex 24.1576 22.5103 0
    endloop
  endfacet
  facet normal -0 0 -1
    outer loop
      vertex 24.1576 22.5103 0
      vertex 16.38 21.3311 0
      vertex 24.3284 23.073 0
    endloop
  endfacet
  facet normal 0 0 -1
    outer loop
      vertex 16.38 21.3311 0
      vertex 19.8926 16.3962 0
      vertex 19.6 16.425 0
    endloop
  endfacet
  facet normal 0 0 -1
    outer loop
      vertex 16.38 21.3311 0
      vertex 19.6 16.425 0
      vertex 19.3074 16.3962 0
    endloop
  endfacet
  facet normal 0 0 -1
    outer loop
      vertex 16.38 21.3311 0
      vertex 19.3074 16.3962 0
      vertex 19.026 16.3108 0
    endloop
  endfacet
  facet normal 0 0 -1
    outer loop
      vertex 16.38 21.3311 0
      vertex 19.026 16.3108 0
      vertex 18.7666 16.1722 0
    endloop
  endfacet
  facet normal 0 0 -1
    outer loop
      vertex 16.38 21.3311 0
      vertex 18.7666 16.1722 0
      vertex 18.5393 15.9857 0
    endloop
  endfacet
  facet normal 0 0 -1
    outer loop
      vertex 16.38 21.3311 0
      vertex 18.5393 15.9857 0
      vertex 18.3528 15.7584 0
    endloop
  endfacet
  facet normal 0 0 -1
    outer loop
      vertex 16.38 21.3311 0
      vertex 18.1288 15.2176 0
      vertex 18.1 14.925 0
    endloop
  endfacet
  facet normal 0 0 -1
    outer loop
      vertex 16.38 21.3311 0
      vertex 18.2142 15.499 0
      vertex 18.1288 15.2176 0
    endloop
  endfacet
  facet normal 0 0 -1
    outer loop
      vertex 16.38 21.3311 0
      vertex 18.3528 15.7584 0
      vertex 18.2142 15.499 0
    endloop
  endfacet
  facet normal -0 0 -1
    outer loop
      vertex 24.3284 23.073 0
      vertex 16.38 21.3311 0
      vertex 24.6056 23.5917 0
    endloop
  endfacet
  facet normal 0 0 -1
    outer loop
      vertex 16.38 33.3689 0
      vertex 24.6056 23.5917 0
      vertex 16.38 21.3311 0
    endloop
  endfacet
  facet normal 0 0 -1
    outer loop
      vertex 24.6056 23.5917 0
      vertex 16.38 33.3689 0
      vertex 24.9787 24.0463 0
    endloop
  endfacet
  facet normal 0 0 -1
    outer loop
      vertex 24.9787 24.0463 0
      vertex 16.38 33.3689 0
      vertex 25.4333 24.4194 0
    endloop
  endfacet
  facet normal 0 0 -1
    outer loop
      vertex 25.4333 24.4194 0
      vertex 16.38 33.3689 0
      vertex 25.952 24.6966 0
    endloop
  endfacet
  facet normal 0 0 -1
    outer loop
      vertex 16.38 33.3689 0
      vertex 26.5147 24.8674 0
      vertex 25.952 24.6966 0
    endloop
  endfacet
  facet normal 0 0 -1
    outer loop
      vertex 61.0977 34.4175 0
      vertex 15.1023 34.4175 0
      vertex 62.5672 35.203 0
    endloop
  endfacet
  facet normal 0 0 -1
    outer loop
      vertex 13.6328 35.203 0
      vertex 62.5672 35.203 0
      vertex 15.1023 34.4175 0
    endloop
  endfacet
  facet normal 0 0 -1
    outer loop
      vertex 12.0383 35.6867 0
      vertex 62.5672 35.203 0
      vertex 13.6328 35.203 0
    endloop
  endfacet
  facet normal 0 0 -1
    outer loop
      vertex 64.1617 35.6867 0
      vertex 12.0383 35.6867 0
      vertex 76.2 39.7 0
    endloop
  endfacet
  facet normal 0 0 -1
    outer loop
      vertex 0 39.7 0
      vertex 12.0383 35.6867 0
      vertex 10.38 35.85 0
    endloop
  endfacet
  facet normal 0 0 -1
    outer loop
      vertex 12.0383 35.6867 0
      vertex 0 39.7 0
      vertex 76.2 39.7 0
    endloop
  endfacet
  facet normal 0 0 -1
    outer loop
      vertex 8.72173 35.6867 0
      vertex 0 39.7 0
      vertex 10.38 35.85 0
    endloop
  endfacet
  facet normal 0 0 -1
    outer loop
      vertex 7.12719 35.203 0
      vertex 0 39.7 0
      vertex 8.72173 35.6867 0
    endloop
  endfacet
  facet normal 0 0 -1
    outer loop
      vertex 5.65765 34.4175 0
      vertex 0 39.7 0
      vertex 7.12719 35.203 0
    endloop
  endfacet
  facet normal 0 0 -1
    outer loop
      vertex 4.38 33.3689 0
      vertex 0 39.7 0
      vertex 5.65765 34.4175 0
    endloop
  endfacet
  facet normal 0 0 -1
    outer loop
      vertex 4.38 21.3311 0
      vertex 0 39.7 0
      vertex 4.38 33.3689 0
    endloop
  endfacet
  facet normal 0 -1 0
    outer loop
      vertex 0 0 0
      vertex 76.2 0 1.5
      vertex 0 0 1.5
    endloop
  endfacet
  facet normal 0 -1 -0
    outer loop
      vertex 76.2 0 1.5
      vertex 0 0 0
      vertex 76.2 0 0
    endloop
  endfacet
endsolid OpenSCAD_Model
